<mxfile host="app.diagrams.net" modified="2023-09-26T11:54:07.708Z" agent="Mozilla/5.0 (Windows NT 10.0; Win64; x64) AppleWebKit/537.36 (KHTML, like Gecko) Chrome/114.0.0.0 YaBrowser/23.7.5.734 Yowser/2.5 Safari/537.36" etag="It-SM2R1I67jnlFx0fpV" version="21.7.5" type="device">
  <diagram name="Страница — 1" id="gIKp3Uan3dsmI0In-pl2">
    <mxGraphModel dx="1702" dy="1622" grid="1" gridSize="10" guides="1" tooltips="1" connect="1" arrows="1" fold="1" page="1" pageScale="1" pageWidth="827" pageHeight="1169" background="none" math="0" shadow="0">
      <root>
        <mxCell id="0" />
        <mxCell id="1" parent="0" />
        <mxCell id="eWaYEDoaf7_sY-xYZwq4-2" value="Запрос на поставку &lt;br style=&quot;font-size: 7px;&quot;&gt;автомобилей" style="text;html=1;align=center;verticalAlign=middle;resizable=0;points=[];autosize=1;strokeColor=none;fillColor=none;fontSize=7;" vertex="1" parent="1">
          <mxGeometry x="-13" y="78" width="90" height="30" as="geometry" />
        </mxCell>
        <mxCell id="eWaYEDoaf7_sY-xYZwq4-3" value="" style="endArrow=classic;html=1;rounded=0;entryX=0;entryY=0.5;entryDx=0;entryDy=0;" edge="1" parent="1">
          <mxGeometry width="50" height="50" relative="1" as="geometry">
            <mxPoint y="110" as="sourcePoint" />
            <mxPoint x="100" y="110" as="targetPoint" />
          </mxGeometry>
        </mxCell>
        <mxCell id="eWaYEDoaf7_sY-xYZwq4-39" value="" style="rounded=0;whiteSpace=wrap;html=1;gradientColor=none;glass=0;shadow=0;" vertex="1" parent="1">
          <mxGeometry x="-33.889999999999986" y="-170" width="155" height="90" as="geometry" />
        </mxCell>
        <mxCell id="eWaYEDoaf7_sY-xYZwq4-40" value="" style="endArrow=none;html=1;rounded=0;exitX=0.003;exitY=0.15;exitDx=0;exitDy=0;entryX=0.077;entryY=0;entryDx=0;entryDy=0;entryPerimeter=0;jumpSize=100;endSize=6;jumpStyle=none;exitPerimeter=0;" edge="1" source="eWaYEDoaf7_sY-xYZwq4-39" target="eWaYEDoaf7_sY-xYZwq4-39" parent="1">
          <mxGeometry width="50" height="50" relative="1" as="geometry">
            <mxPoint x="-33.889999999999986" y="-156.68000000000004" as="sourcePoint" />
            <mxPoint x="-19.370000000000005" y="-170.00000000000003" as="targetPoint" />
          </mxGeometry>
        </mxCell>
        <mxCell id="eWaYEDoaf7_sY-xYZwq4-41" value="0р." style="text;html=1;align=center;verticalAlign=middle;resizable=0;points=[];autosize=1;strokeColor=none;fillColor=none;fontSize=5;" vertex="1" parent="1">
          <mxGeometry x="-37.889999999999986" y="-170" width="30" height="20" as="geometry" />
        </mxCell>
        <mxCell id="eWaYEDoaf7_sY-xYZwq4-42" value="" style="endArrow=none;html=1;rounded=0;exitX=0.002;exitY=0.635;exitDx=0;exitDy=0;exitPerimeter=0;entryX=1.005;entryY=0.786;entryDx=0;entryDy=0;entryPerimeter=0;" edge="1" parent="1">
          <mxGeometry width="50" height="50" relative="1" as="geometry">
            <mxPoint x="-33.64999999999998" y="-99.9" as="sourcePoint" />
            <mxPoint x="121.8850000000001" y="-100.25999999999999" as="targetPoint" />
          </mxGeometry>
        </mxCell>
        <mxCell id="eWaYEDoaf7_sY-xYZwq4-43" value="1.1.1" style="text;html=1;align=center;verticalAlign=middle;resizable=0;points=[];autosize=1;strokeColor=none;fillColor=none;fontSize=8;" vertex="1" parent="1">
          <mxGeometry x="-36.889999999999986" y="-99" width="40" height="20" as="geometry" />
        </mxCell>
        <mxCell id="eWaYEDoaf7_sY-xYZwq4-44" value="&lt;p style=&quot;margin: 0cm; text-indent: 35.45pt;&quot; class=&quot;MsoListParagraph&quot;&gt;&lt;span style=&quot;line-height: 106%; font-family: &amp;quot;Times New Roman&amp;quot;, serif; color: rgb(34, 34, 34);&quot;&gt;Подготовка документов для&amp;nbsp;&lt;/span&gt;&lt;/p&gt;&lt;p style=&quot;margin: 0cm; text-indent: 35.45pt;&quot; class=&quot;MsoListParagraph&quot;&gt;&lt;span style=&quot;line-height: 106%; font-family: &amp;quot;Times New Roman&amp;quot;, serif; color: rgb(34, 34, 34);&quot;&gt;оформления продажи&amp;nbsp;&lt;/span&gt;&lt;/p&gt;&lt;p style=&quot;margin: 0cm; text-indent: 35.45pt;&quot; class=&quot;MsoListParagraph&quot;&gt;&lt;span style=&quot;line-height: 106%; font-family: &amp;quot;Times New Roman&amp;quot;, serif; color: rgb(34, 34, 34);&quot;&gt;(договор купли-продажи,&amp;nbsp;&lt;/span&gt;&lt;/p&gt;&lt;p style=&quot;margin: 0cm; text-indent: 35.45pt;&quot; class=&quot;MsoListParagraph&quot;&gt;&lt;span style=&quot;line-height: 106%; font-family: &amp;quot;Times New Roman&amp;quot;, serif; color: rgb(34, 34, 34);&quot;&gt;акт приема-передачи и т. д.);&lt;/span&gt;&lt;/p&gt;" style="text;html=1;align=center;verticalAlign=middle;resizable=0;points=[];autosize=1;strokeColor=none;fillColor=none;fontSize=9;" vertex="1" parent="1">
          <mxGeometry x="-69.88999999999999" y="-163" width="180" height="60" as="geometry" />
        </mxCell>
        <mxCell id="eWaYEDoaf7_sY-xYZwq4-45" value="" style="endArrow=none;html=1;rounded=0;entryX=0.5;entryY=1;entryDx=0;entryDy=0;" edge="1" parent="1">
          <mxGeometry width="50" height="50" relative="1" as="geometry">
            <mxPoint x="43.55000000000001" y="-100" as="sourcePoint" />
            <mxPoint x="43.55000000000001" y="-80" as="targetPoint" />
          </mxGeometry>
        </mxCell>
        <mxCell id="eWaYEDoaf7_sY-xYZwq4-46" value="" style="rounded=0;whiteSpace=wrap;html=1;gradientColor=none;glass=0;shadow=0;" vertex="1" parent="1">
          <mxGeometry x="100.22000000000001" y="67" width="155" height="90" as="geometry" />
        </mxCell>
        <mxCell id="eWaYEDoaf7_sY-xYZwq4-47" value="" style="endArrow=none;html=1;rounded=0;exitX=0.003;exitY=0.15;exitDx=0;exitDy=0;entryX=0.077;entryY=0;entryDx=0;entryDy=0;entryPerimeter=0;jumpSize=100;endSize=6;jumpStyle=none;exitPerimeter=0;" edge="1" source="eWaYEDoaf7_sY-xYZwq4-46" target="eWaYEDoaf7_sY-xYZwq4-46" parent="1">
          <mxGeometry width="50" height="50" relative="1" as="geometry">
            <mxPoint x="100.22000000000001" y="80.31999999999996" as="sourcePoint" />
            <mxPoint x="114.74" y="66.99999999999997" as="targetPoint" />
          </mxGeometry>
        </mxCell>
        <mxCell id="eWaYEDoaf7_sY-xYZwq4-48" value="0р." style="text;html=1;align=center;verticalAlign=middle;resizable=0;points=[];autosize=1;strokeColor=none;fillColor=none;fontSize=5;" vertex="1" parent="1">
          <mxGeometry x="96.22000000000001" y="67" width="30" height="20" as="geometry" />
        </mxCell>
        <mxCell id="eWaYEDoaf7_sY-xYZwq4-49" value="" style="endArrow=none;html=1;rounded=0;exitX=0.002;exitY=0.635;exitDx=0;exitDy=0;exitPerimeter=0;entryX=1.005;entryY=0.786;entryDx=0;entryDy=0;entryPerimeter=0;" edge="1" parent="1">
          <mxGeometry width="50" height="50" relative="1" as="geometry">
            <mxPoint x="100.46000000000002" y="137.1" as="sourcePoint" />
            <mxPoint x="255.99500000000012" y="136.74" as="targetPoint" />
          </mxGeometry>
        </mxCell>
        <mxCell id="eWaYEDoaf7_sY-xYZwq4-50" value="1.1.1" style="text;html=1;align=center;verticalAlign=middle;resizable=0;points=[];autosize=1;strokeColor=none;fillColor=none;fontSize=8;" vertex="1" parent="1">
          <mxGeometry x="97.22000000000001" y="138" width="40" height="20" as="geometry" />
        </mxCell>
        <mxCell id="eWaYEDoaf7_sY-xYZwq4-51" value="&lt;p style=&quot;margin: 0cm; text-indent: 35.45pt;&quot; class=&quot;MsoListParagraph&quot;&gt;Инициировать запрос&amp;nbsp;&lt;/p&gt;&lt;p style=&quot;margin: 0cm; text-indent: 35.45pt;&quot; class=&quot;MsoListParagraph&quot;&gt;на поставку&lt;br&gt;&lt;/p&gt;" style="text;html=1;align=center;verticalAlign=middle;resizable=0;points=[];autosize=1;strokeColor=none;fillColor=none;fontSize=9;" vertex="1" parent="1">
          <mxGeometry x="74.22000000000001" y="84" width="160" height="40" as="geometry" />
        </mxCell>
        <mxCell id="eWaYEDoaf7_sY-xYZwq4-52" value="" style="endArrow=none;html=1;rounded=0;entryX=0.5;entryY=1;entryDx=0;entryDy=0;" edge="1" parent="1">
          <mxGeometry width="50" height="50" relative="1" as="geometry">
            <mxPoint x="177.66000000000003" y="137" as="sourcePoint" />
            <mxPoint x="177.66000000000003" y="157" as="targetPoint" />
          </mxGeometry>
        </mxCell>
        <mxCell id="eWaYEDoaf7_sY-xYZwq4-59" value="" style="rounded=0;whiteSpace=wrap;html=1;gradientColor=none;glass=0;shadow=0;" vertex="1" parent="1">
          <mxGeometry x="296" y="66" width="155" height="90" as="geometry" />
        </mxCell>
        <mxCell id="eWaYEDoaf7_sY-xYZwq4-60" value="" style="endArrow=none;html=1;rounded=0;exitX=0.003;exitY=0.15;exitDx=0;exitDy=0;entryX=0.077;entryY=0;entryDx=0;entryDy=0;entryPerimeter=0;jumpSize=100;endSize=6;jumpStyle=none;exitPerimeter=0;" edge="1" parent="1" source="eWaYEDoaf7_sY-xYZwq4-59" target="eWaYEDoaf7_sY-xYZwq4-59">
          <mxGeometry width="50" height="50" relative="1" as="geometry">
            <mxPoint x="296" y="79.31999999999996" as="sourcePoint" />
            <mxPoint x="310.52" y="65.99999999999997" as="targetPoint" />
          </mxGeometry>
        </mxCell>
        <mxCell id="eWaYEDoaf7_sY-xYZwq4-61" value="0р." style="text;html=1;align=center;verticalAlign=middle;resizable=0;points=[];autosize=1;strokeColor=none;fillColor=none;fontSize=5;" vertex="1" parent="1">
          <mxGeometry x="292" y="66" width="30" height="20" as="geometry" />
        </mxCell>
        <mxCell id="eWaYEDoaf7_sY-xYZwq4-62" value="" style="endArrow=none;html=1;rounded=0;exitX=0.002;exitY=0.635;exitDx=0;exitDy=0;exitPerimeter=0;entryX=1.005;entryY=0.786;entryDx=0;entryDy=0;entryPerimeter=0;" edge="1" parent="1">
          <mxGeometry width="50" height="50" relative="1" as="geometry">
            <mxPoint x="296.24" y="136.1" as="sourcePoint" />
            <mxPoint x="451.7750000000001" y="135.74" as="targetPoint" />
          </mxGeometry>
        </mxCell>
        <mxCell id="eWaYEDoaf7_sY-xYZwq4-63" value="1.1.2" style="text;html=1;align=center;verticalAlign=middle;resizable=0;points=[];autosize=1;strokeColor=none;fillColor=none;fontSize=8;" vertex="1" parent="1">
          <mxGeometry x="293" y="137" width="40" height="20" as="geometry" />
        </mxCell>
        <mxCell id="eWaYEDoaf7_sY-xYZwq4-64" value="&lt;p style=&quot;margin: 0cm; text-indent: 35.45pt;&quot; class=&quot;MsoListParagraph&quot;&gt;Проверить состояние&amp;nbsp;&lt;/p&gt;&lt;p style=&quot;margin: 0cm; text-indent: 35.45pt;&quot; class=&quot;MsoListParagraph&quot;&gt;автомобилей при получении&lt;br&gt;&lt;/p&gt;" style="text;html=1;align=center;verticalAlign=middle;resizable=0;points=[];autosize=1;strokeColor=none;fillColor=none;fontSize=9;" vertex="1" parent="1">
          <mxGeometry x="255" y="83" width="190" height="40" as="geometry" />
        </mxCell>
        <mxCell id="eWaYEDoaf7_sY-xYZwq4-65" value="" style="endArrow=none;html=1;rounded=0;entryX=0.5;entryY=1;entryDx=0;entryDy=0;" edge="1" parent="1">
          <mxGeometry width="50" height="50" relative="1" as="geometry">
            <mxPoint x="373.44" y="136" as="sourcePoint" />
            <mxPoint x="373.44" y="156" as="targetPoint" />
          </mxGeometry>
        </mxCell>
        <mxCell id="eWaYEDoaf7_sY-xYZwq4-66" value="" style="endArrow=classic;html=1;rounded=0;exitX=1;exitY=0.5;exitDx=0;exitDy=0;" edge="1" parent="1" source="eWaYEDoaf7_sY-xYZwq4-46" target="eWaYEDoaf7_sY-xYZwq4-59">
          <mxGeometry width="50" height="50" relative="1" as="geometry">
            <mxPoint x="260" y="160" as="sourcePoint" />
            <mxPoint x="300" y="110" as="targetPoint" />
          </mxGeometry>
        </mxCell>
        <mxCell id="eWaYEDoaf7_sY-xYZwq4-67" value="" style="rounded=0;whiteSpace=wrap;html=1;gradientColor=none;glass=0;shadow=0;" vertex="1" parent="1">
          <mxGeometry x="296" y="189.5" width="155" height="90" as="geometry" />
        </mxCell>
        <mxCell id="eWaYEDoaf7_sY-xYZwq4-68" value="" style="endArrow=none;html=1;rounded=0;exitX=0.003;exitY=0.15;exitDx=0;exitDy=0;entryX=0.077;entryY=0;entryDx=0;entryDy=0;entryPerimeter=0;jumpSize=100;endSize=6;jumpStyle=none;exitPerimeter=0;" edge="1" source="eWaYEDoaf7_sY-xYZwq4-67" target="eWaYEDoaf7_sY-xYZwq4-67" parent="1">
          <mxGeometry width="50" height="50" relative="1" as="geometry">
            <mxPoint x="296" y="202.81999999999996" as="sourcePoint" />
            <mxPoint x="310.52" y="189.49999999999997" as="targetPoint" />
          </mxGeometry>
        </mxCell>
        <mxCell id="eWaYEDoaf7_sY-xYZwq4-69" value="0р." style="text;html=1;align=center;verticalAlign=middle;resizable=0;points=[];autosize=1;strokeColor=none;fillColor=none;fontSize=5;" vertex="1" parent="1">
          <mxGeometry x="292" y="189.5" width="30" height="20" as="geometry" />
        </mxCell>
        <mxCell id="eWaYEDoaf7_sY-xYZwq4-70" value="" style="endArrow=none;html=1;rounded=0;exitX=0.002;exitY=0.635;exitDx=0;exitDy=0;exitPerimeter=0;entryX=1.005;entryY=0.786;entryDx=0;entryDy=0;entryPerimeter=0;" edge="1" parent="1">
          <mxGeometry width="50" height="50" relative="1" as="geometry">
            <mxPoint x="296.24" y="259.6" as="sourcePoint" />
            <mxPoint x="451.7750000000001" y="259.24" as="targetPoint" />
          </mxGeometry>
        </mxCell>
        <mxCell id="eWaYEDoaf7_sY-xYZwq4-71" value="1.1.3" style="text;html=1;align=center;verticalAlign=middle;resizable=0;points=[];autosize=1;strokeColor=none;fillColor=none;fontSize=8;" vertex="1" parent="1">
          <mxGeometry x="293" y="260.5" width="40" height="20" as="geometry" />
        </mxCell>
        <mxCell id="eWaYEDoaf7_sY-xYZwq4-72" value="&lt;p style=&quot;margin: 0cm; text-indent: 35.45pt;&quot; class=&quot;MsoListParagraph&quot;&gt;Подтвердить прием автомобилей&amp;nbsp;&lt;/p&gt;&lt;p style=&quot;margin: 0cm; text-indent: 35.45pt;&quot; class=&quot;MsoListParagraph&quot;&gt;и закрыть поставочный договор&lt;br&gt;&lt;/p&gt;" style="text;html=1;align=center;verticalAlign=middle;resizable=0;points=[];autosize=1;strokeColor=none;fillColor=none;fontSize=9;" vertex="1" parent="1">
          <mxGeometry x="245" y="206.5" width="210" height="40" as="geometry" />
        </mxCell>
        <mxCell id="eWaYEDoaf7_sY-xYZwq4-73" value="" style="endArrow=none;html=1;rounded=0;entryX=0.5;entryY=1;entryDx=0;entryDy=0;" edge="1" parent="1">
          <mxGeometry width="50" height="50" relative="1" as="geometry">
            <mxPoint x="373.44000000000005" y="259.5" as="sourcePoint" />
            <mxPoint x="373.44000000000005" y="279.5" as="targetPoint" />
          </mxGeometry>
        </mxCell>
        <mxCell id="eWaYEDoaf7_sY-xYZwq4-74" value="" style="endArrow=classic;html=1;rounded=0;exitX=0.5;exitY=1;exitDx=0;exitDy=0;entryX=0.5;entryY=0;entryDx=0;entryDy=0;" edge="1" parent="1">
          <mxGeometry width="50" height="50" relative="1" as="geometry">
            <mxPoint x="387.5" y="155" as="sourcePoint" />
            <mxPoint x="387.5" y="188.5" as="targetPoint" />
          </mxGeometry>
        </mxCell>
        <mxCell id="eWaYEDoaf7_sY-xYZwq4-76" value="" style="rounded=0;whiteSpace=wrap;html=1;gradientColor=none;glass=0;shadow=0;" vertex="1" parent="1">
          <mxGeometry x="99.44000000000001" y="190" width="155" height="90" as="geometry" />
        </mxCell>
        <mxCell id="eWaYEDoaf7_sY-xYZwq4-77" value="" style="endArrow=none;html=1;rounded=0;exitX=0.003;exitY=0.15;exitDx=0;exitDy=0;entryX=0.077;entryY=0;entryDx=0;entryDy=0;entryPerimeter=0;jumpSize=100;endSize=6;jumpStyle=none;exitPerimeter=0;" edge="1" source="eWaYEDoaf7_sY-xYZwq4-76" target="eWaYEDoaf7_sY-xYZwq4-76" parent="1">
          <mxGeometry width="50" height="50" relative="1" as="geometry">
            <mxPoint x="99.44000000000001" y="203.31999999999996" as="sourcePoint" />
            <mxPoint x="113.96" y="189.99999999999997" as="targetPoint" />
          </mxGeometry>
        </mxCell>
        <mxCell id="eWaYEDoaf7_sY-xYZwq4-78" value="0р." style="text;html=1;align=center;verticalAlign=middle;resizable=0;points=[];autosize=1;strokeColor=none;fillColor=none;fontSize=5;" vertex="1" parent="1">
          <mxGeometry x="95.44000000000001" y="190" width="30" height="20" as="geometry" />
        </mxCell>
        <mxCell id="eWaYEDoaf7_sY-xYZwq4-79" value="" style="endArrow=none;html=1;rounded=0;exitX=0.002;exitY=0.635;exitDx=0;exitDy=0;exitPerimeter=0;entryX=1.005;entryY=0.786;entryDx=0;entryDy=0;entryPerimeter=0;" edge="1" parent="1">
          <mxGeometry width="50" height="50" relative="1" as="geometry">
            <mxPoint x="99.68000000000002" y="260.1" as="sourcePoint" />
            <mxPoint x="255.2150000000001" y="259.74" as="targetPoint" />
          </mxGeometry>
        </mxCell>
        <mxCell id="eWaYEDoaf7_sY-xYZwq4-80" value="1.1.4" style="text;html=1;align=center;verticalAlign=middle;resizable=0;points=[];autosize=1;strokeColor=none;fillColor=none;fontSize=8;" vertex="1" parent="1">
          <mxGeometry x="96.44000000000001" y="261" width="40" height="20" as="geometry" />
        </mxCell>
        <mxCell id="eWaYEDoaf7_sY-xYZwq4-81" value="&lt;p style=&quot;margin: 0cm; text-indent: 35.45pt;&quot; class=&quot;MsoListParagraph&quot;&gt;Внести автомобили во&amp;nbsp;&lt;/p&gt;&lt;p style=&quot;margin: 0cm; text-indent: 35.45pt;&quot; class=&quot;MsoListParagraph&quot;&gt;временный инвентарь&lt;br&gt;&lt;/p&gt;" style="text;html=1;align=center;verticalAlign=middle;resizable=0;points=[];autosize=1;strokeColor=none;fillColor=none;fontSize=9;" vertex="1" parent="1">
          <mxGeometry x="68.44000000000001" y="207" width="170" height="40" as="geometry" />
        </mxCell>
        <mxCell id="eWaYEDoaf7_sY-xYZwq4-82" value="" style="endArrow=none;html=1;rounded=0;entryX=0.5;entryY=1;entryDx=0;entryDy=0;" edge="1" parent="1">
          <mxGeometry width="50" height="50" relative="1" as="geometry">
            <mxPoint x="176.88" y="260" as="sourcePoint" />
            <mxPoint x="176.88" y="280" as="targetPoint" />
          </mxGeometry>
        </mxCell>
        <mxCell id="eWaYEDoaf7_sY-xYZwq4-83" value="" style="endArrow=none;html=1;rounded=0;exitX=1;exitY=0.5;exitDx=0;exitDy=0;startArrow=classic;startFill=1;endFill=0;" edge="1" parent="1">
          <mxGeometry width="50" height="50" relative="1" as="geometry">
            <mxPoint x="254.44" y="234.14" as="sourcePoint" />
            <mxPoint x="295.44" y="234.14" as="targetPoint" />
          </mxGeometry>
        </mxCell>
        <mxCell id="eWaYEDoaf7_sY-xYZwq4-84" value="" style="endArrow=none;html=1;rounded=0;entryX=0;entryY=0.5;entryDx=0;entryDy=0;startArrow=classic;startFill=1;endFill=0;exitX=0;exitY=0.5;exitDx=0;exitDy=0;" edge="1" parent="1" source="eWaYEDoaf7_sY-xYZwq4-304">
          <mxGeometry width="50" height="50" relative="1" as="geometry">
            <mxPoint x="-0.5600000000000005" y="238.5" as="sourcePoint" />
            <mxPoint x="99.44" y="238.5" as="targetPoint" />
            <Array as="points">
              <mxPoint x="470" y="178" />
              <mxPoint x="470" y="310" />
              <mxPoint y="310" />
              <mxPoint y="239" />
            </Array>
          </mxGeometry>
        </mxCell>
        <mxCell id="eWaYEDoaf7_sY-xYZwq4-85" value="Полученные автомобили" style="text;html=1;align=center;verticalAlign=middle;resizable=0;points=[];autosize=1;strokeColor=none;fillColor=none;fontSize=7;" vertex="1" parent="1">
          <mxGeometry x="-13.560000000000002" y="211.5" width="110" height="20" as="geometry" />
        </mxCell>
        <mxCell id="eWaYEDoaf7_sY-xYZwq4-86" value="Данные об автомобиле &lt;br&gt;(марка, модель, год&lt;br/&gt;выпуска и т. д.)." style="text;html=1;align=center;verticalAlign=middle;resizable=0;points=[];autosize=1;strokeColor=none;fillColor=none;fontSize=7;" vertex="1" parent="1">
          <mxGeometry x="550.56" y="83" width="100" height="40" as="geometry" />
        </mxCell>
        <mxCell id="eWaYEDoaf7_sY-xYZwq4-87" value="" style="endArrow=classic;html=1;rounded=0;entryX=0;entryY=0.5;entryDx=0;entryDy=0;exitX=1;exitY=0.5;exitDx=0;exitDy=0;" edge="1" parent="1" source="eWaYEDoaf7_sY-xYZwq4-304">
          <mxGeometry width="50" height="50" relative="1" as="geometry">
            <mxPoint x="563.56" y="120" as="sourcePoint" />
            <mxPoint x="663.56" y="120" as="targetPoint" />
            <Array as="points">
              <mxPoint x="550" y="178" />
              <mxPoint x="550" y="120" />
            </Array>
          </mxGeometry>
        </mxCell>
        <mxCell id="eWaYEDoaf7_sY-xYZwq4-88" value="" style="rounded=0;whiteSpace=wrap;html=1;gradientColor=none;glass=0;shadow=0;" vertex="1" parent="1">
          <mxGeometry x="663.78" y="77" width="155" height="90" as="geometry" />
        </mxCell>
        <mxCell id="eWaYEDoaf7_sY-xYZwq4-89" value="" style="endArrow=none;html=1;rounded=0;exitX=0.003;exitY=0.15;exitDx=0;exitDy=0;entryX=0.077;entryY=0;entryDx=0;entryDy=0;entryPerimeter=0;jumpSize=100;endSize=6;jumpStyle=none;exitPerimeter=0;" edge="1" source="eWaYEDoaf7_sY-xYZwq4-88" target="eWaYEDoaf7_sY-xYZwq4-88" parent="1">
          <mxGeometry width="50" height="50" relative="1" as="geometry">
            <mxPoint x="663.78" y="90.31999999999996" as="sourcePoint" />
            <mxPoint x="678.3" y="76.99999999999997" as="targetPoint" />
          </mxGeometry>
        </mxCell>
        <mxCell id="eWaYEDoaf7_sY-xYZwq4-90" value="0р." style="text;html=1;align=center;verticalAlign=middle;resizable=0;points=[];autosize=1;strokeColor=none;fillColor=none;fontSize=5;" vertex="1" parent="1">
          <mxGeometry x="659.78" y="77" width="30" height="20" as="geometry" />
        </mxCell>
        <mxCell id="eWaYEDoaf7_sY-xYZwq4-91" value="" style="endArrow=none;html=1;rounded=0;exitX=0.002;exitY=0.635;exitDx=0;exitDy=0;exitPerimeter=0;entryX=1.005;entryY=0.786;entryDx=0;entryDy=0;entryPerimeter=0;" edge="1" parent="1">
          <mxGeometry width="50" height="50" relative="1" as="geometry">
            <mxPoint x="664.02" y="147.1" as="sourcePoint" />
            <mxPoint x="819.5550000000001" y="146.74" as="targetPoint" />
          </mxGeometry>
        </mxCell>
        <mxCell id="eWaYEDoaf7_sY-xYZwq4-92" value="1.2.1" style="text;html=1;align=center;verticalAlign=middle;resizable=0;points=[];autosize=1;strokeColor=none;fillColor=none;fontSize=8;" vertex="1" parent="1">
          <mxGeometry x="660.78" y="148" width="40" height="20" as="geometry" />
        </mxCell>
        <mxCell id="eWaYEDoaf7_sY-xYZwq4-93" value="&lt;p style=&quot;margin: 0cm; text-indent: 35.45pt;&quot; class=&quot;MsoListParagraph&quot;&gt;Ввод данных об автомобиле&lt;br&gt;&lt;/p&gt;" style="text;html=1;align=center;verticalAlign=middle;resizable=0;points=[];autosize=1;strokeColor=none;fillColor=none;fontSize=9;" vertex="1" parent="1">
          <mxGeometry x="622.78" y="104" width="190" height="20" as="geometry" />
        </mxCell>
        <mxCell id="eWaYEDoaf7_sY-xYZwq4-94" value="" style="endArrow=none;html=1;rounded=0;entryX=0.5;entryY=1;entryDx=0;entryDy=0;" edge="1" parent="1">
          <mxGeometry width="50" height="50" relative="1" as="geometry">
            <mxPoint x="741.22" y="147" as="sourcePoint" />
            <mxPoint x="741.22" y="167" as="targetPoint" />
          </mxGeometry>
        </mxCell>
        <mxCell id="eWaYEDoaf7_sY-xYZwq4-95" value="" style="rounded=0;whiteSpace=wrap;html=1;gradientColor=none;glass=0;shadow=0;" vertex="1" parent="1">
          <mxGeometry x="859.56" y="76" width="155" height="90" as="geometry" />
        </mxCell>
        <mxCell id="eWaYEDoaf7_sY-xYZwq4-96" value="" style="endArrow=none;html=1;rounded=0;exitX=0.003;exitY=0.15;exitDx=0;exitDy=0;entryX=0.077;entryY=0;entryDx=0;entryDy=0;entryPerimeter=0;jumpSize=100;endSize=6;jumpStyle=none;exitPerimeter=0;" edge="1" source="eWaYEDoaf7_sY-xYZwq4-95" target="eWaYEDoaf7_sY-xYZwq4-95" parent="1">
          <mxGeometry width="50" height="50" relative="1" as="geometry">
            <mxPoint x="859.56" y="89.31999999999996" as="sourcePoint" />
            <mxPoint x="874.0799999999999" y="75.99999999999997" as="targetPoint" />
          </mxGeometry>
        </mxCell>
        <mxCell id="eWaYEDoaf7_sY-xYZwq4-97" value="0р." style="text;html=1;align=center;verticalAlign=middle;resizable=0;points=[];autosize=1;strokeColor=none;fillColor=none;fontSize=5;" vertex="1" parent="1">
          <mxGeometry x="855.56" y="76" width="30" height="20" as="geometry" />
        </mxCell>
        <mxCell id="eWaYEDoaf7_sY-xYZwq4-98" value="" style="endArrow=none;html=1;rounded=0;exitX=0.002;exitY=0.635;exitDx=0;exitDy=0;exitPerimeter=0;entryX=1.005;entryY=0.786;entryDx=0;entryDy=0;entryPerimeter=0;" edge="1" parent="1">
          <mxGeometry width="50" height="50" relative="1" as="geometry">
            <mxPoint x="859.8" y="146.1" as="sourcePoint" />
            <mxPoint x="1015.335" y="145.74" as="targetPoint" />
          </mxGeometry>
        </mxCell>
        <mxCell id="eWaYEDoaf7_sY-xYZwq4-99" value="1.2.2" style="text;html=1;align=center;verticalAlign=middle;resizable=0;points=[];autosize=1;strokeColor=none;fillColor=none;fontSize=8;" vertex="1" parent="1">
          <mxGeometry x="856.56" y="147" width="40" height="20" as="geometry" />
        </mxCell>
        <mxCell id="eWaYEDoaf7_sY-xYZwq4-100" value="&lt;p style=&quot;margin: 0cm; text-indent: 35.45pt;&quot; class=&quot;MsoListParagraph&quot;&gt;Добавление фотографий&amp;nbsp;&lt;/p&gt;&lt;p style=&quot;margin: 0cm; text-indent: 35.45pt;&quot; class=&quot;MsoListParagraph&quot;&gt;и другой важной информации&lt;br&gt;&lt;/p&gt;" style="text;html=1;align=center;verticalAlign=middle;resizable=0;points=[];autosize=1;strokeColor=none;fillColor=none;fontSize=9;" vertex="1" parent="1">
          <mxGeometry x="813.56" y="93" width="200" height="40" as="geometry" />
        </mxCell>
        <mxCell id="eWaYEDoaf7_sY-xYZwq4-101" value="" style="endArrow=none;html=1;rounded=0;entryX=0.5;entryY=1;entryDx=0;entryDy=0;" edge="1" parent="1">
          <mxGeometry width="50" height="50" relative="1" as="geometry">
            <mxPoint x="937" y="146" as="sourcePoint" />
            <mxPoint x="937" y="166" as="targetPoint" />
          </mxGeometry>
        </mxCell>
        <mxCell id="eWaYEDoaf7_sY-xYZwq4-102" value="" style="endArrow=classic;html=1;rounded=0;exitX=1;exitY=0.5;exitDx=0;exitDy=0;" edge="1" source="eWaYEDoaf7_sY-xYZwq4-88" target="eWaYEDoaf7_sY-xYZwq4-95" parent="1">
          <mxGeometry width="50" height="50" relative="1" as="geometry">
            <mxPoint x="823.56" y="170" as="sourcePoint" />
            <mxPoint x="863.56" y="120" as="targetPoint" />
          </mxGeometry>
        </mxCell>
        <mxCell id="eWaYEDoaf7_sY-xYZwq4-103" value="" style="rounded=0;whiteSpace=wrap;html=1;gradientColor=none;glass=0;shadow=0;" vertex="1" parent="1">
          <mxGeometry x="859.56" y="199.5" width="155" height="90" as="geometry" />
        </mxCell>
        <mxCell id="eWaYEDoaf7_sY-xYZwq4-104" value="" style="endArrow=none;html=1;rounded=0;exitX=0.003;exitY=0.15;exitDx=0;exitDy=0;entryX=0.077;entryY=0;entryDx=0;entryDy=0;entryPerimeter=0;jumpSize=100;endSize=6;jumpStyle=none;exitPerimeter=0;" edge="1" source="eWaYEDoaf7_sY-xYZwq4-103" target="eWaYEDoaf7_sY-xYZwq4-103" parent="1">
          <mxGeometry width="50" height="50" relative="1" as="geometry">
            <mxPoint x="859.56" y="212.81999999999996" as="sourcePoint" />
            <mxPoint x="874.0799999999999" y="199.49999999999997" as="targetPoint" />
          </mxGeometry>
        </mxCell>
        <mxCell id="eWaYEDoaf7_sY-xYZwq4-105" value="0р." style="text;html=1;align=center;verticalAlign=middle;resizable=0;points=[];autosize=1;strokeColor=none;fillColor=none;fontSize=5;" vertex="1" parent="1">
          <mxGeometry x="855.56" y="199.5" width="30" height="20" as="geometry" />
        </mxCell>
        <mxCell id="eWaYEDoaf7_sY-xYZwq4-106" value="" style="endArrow=none;html=1;rounded=0;exitX=0.002;exitY=0.635;exitDx=0;exitDy=0;exitPerimeter=0;entryX=1.005;entryY=0.786;entryDx=0;entryDy=0;entryPerimeter=0;" edge="1" parent="1">
          <mxGeometry width="50" height="50" relative="1" as="geometry">
            <mxPoint x="859.8" y="269.6" as="sourcePoint" />
            <mxPoint x="1015.335" y="269.24" as="targetPoint" />
          </mxGeometry>
        </mxCell>
        <mxCell id="eWaYEDoaf7_sY-xYZwq4-107" value="1.2.3" style="text;html=1;align=center;verticalAlign=middle;resizable=0;points=[];autosize=1;strokeColor=none;fillColor=none;fontSize=8;" vertex="1" parent="1">
          <mxGeometry x="856.56" y="270.5" width="40" height="20" as="geometry" />
        </mxCell>
        <mxCell id="eWaYEDoaf7_sY-xYZwq4-108" value="&lt;p style=&quot;margin: 0cm; text-indent: 35.45pt;&quot; class=&quot;MsoListParagraph&quot;&gt;Установка и подтверждение&amp;nbsp;&lt;/p&gt;&lt;p style=&quot;margin: 0cm; text-indent: 35.45pt;&quot; class=&quot;MsoListParagraph&quot;&gt;ценовой&amp;nbsp;&lt;span style=&quot;text-indent: 35.45pt; background-color: initial;&quot;&gt;политики для&amp;nbsp;&lt;/span&gt;&lt;/p&gt;&lt;p style=&quot;margin: 0cm; text-indent: 35.45pt;&quot; class=&quot;MsoListParagraph&quot;&gt;&lt;span style=&quot;text-indent: 35.45pt; background-color: initial;&quot;&gt;каждого автомобиля&lt;/span&gt;&lt;/p&gt;" style="text;html=1;align=center;verticalAlign=middle;resizable=0;points=[];autosize=1;strokeColor=none;fillColor=none;fontSize=9;" vertex="1" parent="1">
          <mxGeometry x="818.56" y="211.5" width="190" height="50" as="geometry" />
        </mxCell>
        <mxCell id="eWaYEDoaf7_sY-xYZwq4-109" value="" style="endArrow=none;html=1;rounded=0;entryX=0.5;entryY=1;entryDx=0;entryDy=0;" edge="1" parent="1">
          <mxGeometry width="50" height="50" relative="1" as="geometry">
            <mxPoint x="937" y="269.5" as="sourcePoint" />
            <mxPoint x="937" y="289.5" as="targetPoint" />
          </mxGeometry>
        </mxCell>
        <mxCell id="eWaYEDoaf7_sY-xYZwq4-110" value="" style="endArrow=classic;html=1;rounded=0;exitX=0.5;exitY=1;exitDx=0;exitDy=0;entryX=0.5;entryY=0;entryDx=0;entryDy=0;" edge="1" parent="1">
          <mxGeometry width="50" height="50" relative="1" as="geometry">
            <mxPoint x="951.06" y="165" as="sourcePoint" />
            <mxPoint x="951.06" y="198.5" as="targetPoint" />
          </mxGeometry>
        </mxCell>
        <mxCell id="eWaYEDoaf7_sY-xYZwq4-111" value="" style="rounded=0;whiteSpace=wrap;html=1;gradientColor=none;glass=0;shadow=0;" vertex="1" parent="1">
          <mxGeometry x="663" y="200" width="155" height="90" as="geometry" />
        </mxCell>
        <mxCell id="eWaYEDoaf7_sY-xYZwq4-112" value="" style="endArrow=none;html=1;rounded=0;exitX=0.003;exitY=0.15;exitDx=0;exitDy=0;entryX=0.077;entryY=0;entryDx=0;entryDy=0;entryPerimeter=0;jumpSize=100;endSize=6;jumpStyle=none;exitPerimeter=0;" edge="1" source="eWaYEDoaf7_sY-xYZwq4-111" target="eWaYEDoaf7_sY-xYZwq4-111" parent="1">
          <mxGeometry width="50" height="50" relative="1" as="geometry">
            <mxPoint x="663" y="213.31999999999996" as="sourcePoint" />
            <mxPoint x="677.52" y="199.99999999999997" as="targetPoint" />
          </mxGeometry>
        </mxCell>
        <mxCell id="eWaYEDoaf7_sY-xYZwq4-113" value="0р." style="text;html=1;align=center;verticalAlign=middle;resizable=0;points=[];autosize=1;strokeColor=none;fillColor=none;fontSize=5;" vertex="1" parent="1">
          <mxGeometry x="659" y="200" width="30" height="20" as="geometry" />
        </mxCell>
        <mxCell id="eWaYEDoaf7_sY-xYZwq4-114" value="" style="endArrow=none;html=1;rounded=0;exitX=0.002;exitY=0.635;exitDx=0;exitDy=0;exitPerimeter=0;entryX=1.005;entryY=0.786;entryDx=0;entryDy=0;entryPerimeter=0;" edge="1" parent="1">
          <mxGeometry width="50" height="50" relative="1" as="geometry">
            <mxPoint x="663.24" y="270.1" as="sourcePoint" />
            <mxPoint x="818.7750000000001" y="269.74" as="targetPoint" />
          </mxGeometry>
        </mxCell>
        <mxCell id="eWaYEDoaf7_sY-xYZwq4-115" value="1.2.4" style="text;html=1;align=center;verticalAlign=middle;resizable=0;points=[];autosize=1;strokeColor=none;fillColor=none;fontSize=8;" vertex="1" parent="1">
          <mxGeometry x="660" y="271" width="40" height="20" as="geometry" />
        </mxCell>
        <mxCell id="eWaYEDoaf7_sY-xYZwq4-116" value="&lt;p style=&quot;margin: 0cm; text-indent: 35.45pt;&quot; class=&quot;MsoListParagraph&quot;&gt;Публикация данных&amp;nbsp;&lt;/p&gt;&lt;p style=&quot;margin: 0cm; text-indent: 35.45pt;&quot; class=&quot;MsoListParagraph&quot;&gt;автомобиля в системе&lt;br&gt;&lt;/p&gt;" style="text;html=1;align=center;verticalAlign=middle;resizable=0;points=[];autosize=1;strokeColor=none;fillColor=none;fontSize=9;" vertex="1" parent="1">
          <mxGeometry x="637" y="217" width="160" height="40" as="geometry" />
        </mxCell>
        <mxCell id="eWaYEDoaf7_sY-xYZwq4-117" value="" style="endArrow=none;html=1;rounded=0;entryX=0.5;entryY=1;entryDx=0;entryDy=0;" edge="1" parent="1">
          <mxGeometry width="50" height="50" relative="1" as="geometry">
            <mxPoint x="740.4399999999999" y="270" as="sourcePoint" />
            <mxPoint x="740.4399999999999" y="290" as="targetPoint" />
          </mxGeometry>
        </mxCell>
        <mxCell id="eWaYEDoaf7_sY-xYZwq4-118" value="" style="endArrow=none;html=1;rounded=0;exitX=1;exitY=0.5;exitDx=0;exitDy=0;startArrow=classic;startFill=1;endFill=0;" edge="1" parent="1">
          <mxGeometry width="50" height="50" relative="1" as="geometry">
            <mxPoint x="818" y="244.14" as="sourcePoint" />
            <mxPoint x="859" y="244.14" as="targetPoint" />
          </mxGeometry>
        </mxCell>
        <mxCell id="eWaYEDoaf7_sY-xYZwq4-119" value="" style="endArrow=none;html=1;rounded=0;entryX=0;entryY=0.5;entryDx=0;entryDy=0;startArrow=classic;startFill=1;endFill=0;exitX=1;exitY=0.5;exitDx=0;exitDy=0;" edge="1" parent="1" source="eWaYEDoaf7_sY-xYZwq4-316">
          <mxGeometry width="50" height="50" relative="1" as="geometry">
            <mxPoint x="563" y="248.5" as="sourcePoint" />
            <mxPoint x="663" y="248.5" as="targetPoint" />
          </mxGeometry>
        </mxCell>
        <mxCell id="eWaYEDoaf7_sY-xYZwq4-120" value="&lt;p style=&quot;margin-bottom: 0cm; line-height: 30%;&quot; class=&quot;MsoNormal&quot;&gt;Зарегистрированный&amp;nbsp;&lt;/p&gt;&lt;p style=&quot;margin-bottom: 0cm; line-height: 30%;&quot; class=&quot;MsoNormal&quot;&gt;автомобиль&amp;nbsp;&lt;span style=&quot;background-color: initial;&quot;&gt;в системе,&amp;nbsp;&lt;/span&gt;&lt;/p&gt;&lt;p style=&quot;margin-bottom: 0cm; line-height: 30%;&quot; class=&quot;MsoNormal&quot;&gt;&lt;span style=&quot;background-color: initial;&quot;&gt;опубликованные&amp;nbsp;&lt;/span&gt;&lt;/p&gt;&lt;p style=&quot;margin-bottom: 0cm; line-height: 30%;&quot; class=&quot;MsoNormal&quot;&gt;&lt;span style=&quot;background-color: initial;&quot;&gt;данные о нем&lt;/span&gt;&lt;/p&gt;" style="text;html=1;align=center;verticalAlign=middle;resizable=0;points=[];autosize=1;strokeColor=none;fillColor=none;fontSize=7;" vertex="1" parent="1">
          <mxGeometry x="560" y="194.5" width="100" height="50" as="geometry" />
        </mxCell>
        <mxCell id="eWaYEDoaf7_sY-xYZwq4-123" value="" style="rounded=0;whiteSpace=wrap;html=1;gradientColor=none;glass=0;shadow=0;" vertex="1" parent="1">
          <mxGeometry x="113.78000000000002" y="351" width="155" height="90" as="geometry" />
        </mxCell>
        <mxCell id="eWaYEDoaf7_sY-xYZwq4-124" value="" style="endArrow=none;html=1;rounded=0;exitX=0.003;exitY=0.15;exitDx=0;exitDy=0;entryX=0.077;entryY=0;entryDx=0;entryDy=0;entryPerimeter=0;jumpSize=100;endSize=6;jumpStyle=none;exitPerimeter=0;" edge="1" source="eWaYEDoaf7_sY-xYZwq4-123" target="eWaYEDoaf7_sY-xYZwq4-123" parent="1">
          <mxGeometry width="50" height="50" relative="1" as="geometry">
            <mxPoint x="113.78000000000002" y="364.31999999999994" as="sourcePoint" />
            <mxPoint x="128.29999999999998" y="351" as="targetPoint" />
          </mxGeometry>
        </mxCell>
        <mxCell id="eWaYEDoaf7_sY-xYZwq4-125" value="0р." style="text;html=1;align=center;verticalAlign=middle;resizable=0;points=[];autosize=1;strokeColor=none;fillColor=none;fontSize=5;" vertex="1" parent="1">
          <mxGeometry x="109.78000000000002" y="351" width="30" height="20" as="geometry" />
        </mxCell>
        <mxCell id="eWaYEDoaf7_sY-xYZwq4-126" value="" style="endArrow=none;html=1;rounded=0;exitX=0.002;exitY=0.635;exitDx=0;exitDy=0;exitPerimeter=0;entryX=1.005;entryY=0.786;entryDx=0;entryDy=0;entryPerimeter=0;" edge="1" parent="1">
          <mxGeometry width="50" height="50" relative="1" as="geometry">
            <mxPoint x="114.02000000000002" y="421.1" as="sourcePoint" />
            <mxPoint x="269.5550000000001" y="420.74" as="targetPoint" />
          </mxGeometry>
        </mxCell>
        <mxCell id="eWaYEDoaf7_sY-xYZwq4-127" value="2.1.1" style="text;html=1;align=center;verticalAlign=middle;resizable=0;points=[];autosize=1;strokeColor=none;fillColor=none;fontSize=8;" vertex="1" parent="1">
          <mxGeometry x="110.78000000000002" y="422" width="40" height="20" as="geometry" />
        </mxCell>
        <mxCell id="eWaYEDoaf7_sY-xYZwq4-128" value="&lt;p style=&quot;margin: 0cm; text-indent: 35.45pt;&quot; class=&quot;MsoListParagraph&quot;&gt;Проведение&lt;/p&gt;&lt;p style=&quot;margin: 0cm; text-indent: 35.45pt;&quot; class=&quot;MsoListParagraph&quot;&gt;собеседования с&amp;nbsp;&lt;/p&gt;&lt;p style=&quot;margin: 0cm; text-indent: 35.45pt;&quot; class=&quot;MsoListParagraph&quot;&gt;клиентом для определения его&amp;nbsp;&lt;/p&gt;&lt;p style=&quot;margin: 0cm; text-indent: 35.45pt;&quot; class=&quot;MsoListParagraph&quot;&gt;потребностей и предпочтений&lt;/p&gt;" style="text;html=1;align=center;verticalAlign=middle;resizable=0;points=[];autosize=1;strokeColor=none;fillColor=none;fontSize=9;" vertex="1" parent="1">
          <mxGeometry x="67.78000000000002" y="358" width="200" height="60" as="geometry" />
        </mxCell>
        <mxCell id="eWaYEDoaf7_sY-xYZwq4-129" value="" style="endArrow=none;html=1;rounded=0;entryX=0.5;entryY=1;entryDx=0;entryDy=0;" edge="1" parent="1">
          <mxGeometry width="50" height="50" relative="1" as="geometry">
            <mxPoint x="191.22000000000003" y="421" as="sourcePoint" />
            <mxPoint x="191.22000000000003" y="441" as="targetPoint" />
          </mxGeometry>
        </mxCell>
        <mxCell id="eWaYEDoaf7_sY-xYZwq4-130" value="" style="rounded=0;whiteSpace=wrap;html=1;gradientColor=none;glass=0;shadow=0;" vertex="1" parent="1">
          <mxGeometry x="309.56" y="350" width="155" height="90" as="geometry" />
        </mxCell>
        <mxCell id="eWaYEDoaf7_sY-xYZwq4-131" value="" style="endArrow=none;html=1;rounded=0;exitX=0.003;exitY=0.15;exitDx=0;exitDy=0;entryX=0.077;entryY=0;entryDx=0;entryDy=0;entryPerimeter=0;jumpSize=100;endSize=6;jumpStyle=none;exitPerimeter=0;" edge="1" source="eWaYEDoaf7_sY-xYZwq4-130" target="eWaYEDoaf7_sY-xYZwq4-130" parent="1">
          <mxGeometry width="50" height="50" relative="1" as="geometry">
            <mxPoint x="309.56" y="363.31999999999994" as="sourcePoint" />
            <mxPoint x="324.08" y="350" as="targetPoint" />
          </mxGeometry>
        </mxCell>
        <mxCell id="eWaYEDoaf7_sY-xYZwq4-132" value="0р." style="text;html=1;align=center;verticalAlign=middle;resizable=0;points=[];autosize=1;strokeColor=none;fillColor=none;fontSize=5;" vertex="1" parent="1">
          <mxGeometry x="305.56" y="350" width="30" height="20" as="geometry" />
        </mxCell>
        <mxCell id="eWaYEDoaf7_sY-xYZwq4-133" value="" style="endArrow=none;html=1;rounded=0;exitX=0.002;exitY=0.635;exitDx=0;exitDy=0;exitPerimeter=0;entryX=1.005;entryY=0.786;entryDx=0;entryDy=0;entryPerimeter=0;" edge="1" parent="1">
          <mxGeometry width="50" height="50" relative="1" as="geometry">
            <mxPoint x="309.8" y="420.1" as="sourcePoint" />
            <mxPoint x="465.3350000000001" y="419.74" as="targetPoint" />
          </mxGeometry>
        </mxCell>
        <mxCell id="eWaYEDoaf7_sY-xYZwq4-134" value="2.1.2" style="text;html=1;align=center;verticalAlign=middle;resizable=0;points=[];autosize=1;strokeColor=none;fillColor=none;fontSize=8;" vertex="1" parent="1">
          <mxGeometry x="306.56" y="421" width="40" height="20" as="geometry" />
        </mxCell>
        <mxCell id="eWaYEDoaf7_sY-xYZwq4-136" value="" style="endArrow=none;html=1;rounded=0;entryX=0.5;entryY=1;entryDx=0;entryDy=0;" edge="1" parent="1">
          <mxGeometry width="50" height="50" relative="1" as="geometry">
            <mxPoint x="387" y="420" as="sourcePoint" />
            <mxPoint x="387" y="440" as="targetPoint" />
          </mxGeometry>
        </mxCell>
        <mxCell id="eWaYEDoaf7_sY-xYZwq4-137" value="" style="endArrow=classic;html=1;rounded=0;exitX=1;exitY=0.5;exitDx=0;exitDy=0;" edge="1" source="eWaYEDoaf7_sY-xYZwq4-123" target="eWaYEDoaf7_sY-xYZwq4-130" parent="1">
          <mxGeometry width="50" height="50" relative="1" as="geometry">
            <mxPoint x="273.56" y="444" as="sourcePoint" />
            <mxPoint x="313.56" y="394" as="targetPoint" />
          </mxGeometry>
        </mxCell>
        <mxCell id="eWaYEDoaf7_sY-xYZwq4-138" value="" style="rounded=0;whiteSpace=wrap;html=1;gradientColor=none;glass=0;shadow=0;" vertex="1" parent="1">
          <mxGeometry x="309.56" y="473.5" width="155" height="90" as="geometry" />
        </mxCell>
        <mxCell id="eWaYEDoaf7_sY-xYZwq4-139" value="" style="endArrow=none;html=1;rounded=0;exitX=0.003;exitY=0.15;exitDx=0;exitDy=0;entryX=0.077;entryY=0;entryDx=0;entryDy=0;entryPerimeter=0;jumpSize=100;endSize=6;jumpStyle=none;exitPerimeter=0;" edge="1" source="eWaYEDoaf7_sY-xYZwq4-138" target="eWaYEDoaf7_sY-xYZwq4-138" parent="1">
          <mxGeometry width="50" height="50" relative="1" as="geometry">
            <mxPoint x="309.56" y="486.81999999999994" as="sourcePoint" />
            <mxPoint x="324.08" y="473.5" as="targetPoint" />
          </mxGeometry>
        </mxCell>
        <mxCell id="eWaYEDoaf7_sY-xYZwq4-140" value="0р." style="text;html=1;align=center;verticalAlign=middle;resizable=0;points=[];autosize=1;strokeColor=none;fillColor=none;fontSize=5;" vertex="1" parent="1">
          <mxGeometry x="305.56" y="473.5" width="30" height="20" as="geometry" />
        </mxCell>
        <mxCell id="eWaYEDoaf7_sY-xYZwq4-141" value="" style="endArrow=none;html=1;rounded=0;exitX=0.002;exitY=0.635;exitDx=0;exitDy=0;exitPerimeter=0;entryX=1.005;entryY=0.786;entryDx=0;entryDy=0;entryPerimeter=0;" edge="1" parent="1">
          <mxGeometry width="50" height="50" relative="1" as="geometry">
            <mxPoint x="309.8" y="543.6" as="sourcePoint" />
            <mxPoint x="465.3350000000001" y="543.24" as="targetPoint" />
          </mxGeometry>
        </mxCell>
        <mxCell id="eWaYEDoaf7_sY-xYZwq4-142" value="2.1.3" style="text;html=1;align=center;verticalAlign=middle;resizable=0;points=[];autosize=1;strokeColor=none;fillColor=none;fontSize=8;" vertex="1" parent="1">
          <mxGeometry x="306.56" y="544.5" width="40" height="20" as="geometry" />
        </mxCell>
        <mxCell id="eWaYEDoaf7_sY-xYZwq4-143" value="&lt;p style=&quot;border-color: var(--border-color); margin: 0cm; text-indent: 35.45pt;&quot; class=&quot;MsoListParagraph&quot;&gt;Консультация клиента&amp;nbsp;&lt;/p&gt;&lt;p style=&quot;border-color: var(--border-color); margin: 0cm; text-indent: 35.45pt;&quot; class=&quot;MsoListParagraph&quot;&gt;относительно характеристик&amp;nbsp;&lt;/p&gt;&lt;p style=&quot;border-color: var(--border-color); margin: 0cm; text-indent: 35.45pt;&quot; class=&quot;MsoListParagraph&quot;&gt;и особенностей автомобилей&lt;/p&gt;" style="text;html=1;align=center;verticalAlign=middle;resizable=0;points=[];autosize=1;strokeColor=none;fillColor=none;fontSize=9;" vertex="1" parent="1">
          <mxGeometry x="268.56" y="485.5" width="190" height="50" as="geometry" />
        </mxCell>
        <mxCell id="eWaYEDoaf7_sY-xYZwq4-144" value="" style="endArrow=none;html=1;rounded=0;entryX=0.5;entryY=1;entryDx=0;entryDy=0;" edge="1" parent="1">
          <mxGeometry width="50" height="50" relative="1" as="geometry">
            <mxPoint x="387.00000000000006" y="543.5" as="sourcePoint" />
            <mxPoint x="387.00000000000006" y="563.5" as="targetPoint" />
          </mxGeometry>
        </mxCell>
        <mxCell id="eWaYEDoaf7_sY-xYZwq4-145" value="" style="endArrow=classic;html=1;rounded=0;exitX=0.5;exitY=1;exitDx=0;exitDy=0;entryX=0.5;entryY=0;entryDx=0;entryDy=0;" edge="1" parent="1">
          <mxGeometry width="50" height="50" relative="1" as="geometry">
            <mxPoint x="401.06" y="439" as="sourcePoint" />
            <mxPoint x="401.06" y="472.5" as="targetPoint" />
          </mxGeometry>
        </mxCell>
        <mxCell id="eWaYEDoaf7_sY-xYZwq4-146" value="" style="rounded=0;whiteSpace=wrap;html=1;gradientColor=none;glass=0;shadow=0;" vertex="1" parent="1">
          <mxGeometry x="113.00000000000001" y="474" width="155" height="90" as="geometry" />
        </mxCell>
        <mxCell id="eWaYEDoaf7_sY-xYZwq4-147" value="" style="endArrow=none;html=1;rounded=0;exitX=0.003;exitY=0.15;exitDx=0;exitDy=0;entryX=0.077;entryY=0;entryDx=0;entryDy=0;entryPerimeter=0;jumpSize=100;endSize=6;jumpStyle=none;exitPerimeter=0;" edge="1" source="eWaYEDoaf7_sY-xYZwq4-146" target="eWaYEDoaf7_sY-xYZwq4-146" parent="1">
          <mxGeometry width="50" height="50" relative="1" as="geometry">
            <mxPoint x="113.00000000000001" y="487.31999999999994" as="sourcePoint" />
            <mxPoint x="127.52" y="474" as="targetPoint" />
          </mxGeometry>
        </mxCell>
        <mxCell id="eWaYEDoaf7_sY-xYZwq4-148" value="0р." style="text;html=1;align=center;verticalAlign=middle;resizable=0;points=[];autosize=1;strokeColor=none;fillColor=none;fontSize=5;" vertex="1" parent="1">
          <mxGeometry x="109.00000000000001" y="474" width="30" height="20" as="geometry" />
        </mxCell>
        <mxCell id="eWaYEDoaf7_sY-xYZwq4-149" value="" style="endArrow=none;html=1;rounded=0;exitX=0.002;exitY=0.635;exitDx=0;exitDy=0;exitPerimeter=0;entryX=1.005;entryY=0.786;entryDx=0;entryDy=0;entryPerimeter=0;" edge="1" parent="1">
          <mxGeometry width="50" height="50" relative="1" as="geometry">
            <mxPoint x="113.24000000000002" y="544.1" as="sourcePoint" />
            <mxPoint x="268.7750000000001" y="543.74" as="targetPoint" />
          </mxGeometry>
        </mxCell>
        <mxCell id="eWaYEDoaf7_sY-xYZwq4-150" value="2.1.4" style="text;html=1;align=center;verticalAlign=middle;resizable=0;points=[];autosize=1;strokeColor=none;fillColor=none;fontSize=8;" vertex="1" parent="1">
          <mxGeometry x="110.00000000000001" y="545" width="40" height="20" as="geometry" />
        </mxCell>
        <mxCell id="eWaYEDoaf7_sY-xYZwq4-151" value="&lt;p style=&quot;border-color: var(--border-color); margin: 0cm; text-indent: 35.45pt;&quot; class=&quot;MsoListParagraph&quot;&gt;Предоставление клиенту&amp;nbsp;&lt;/p&gt;&lt;p style=&quot;border-color: var(--border-color); margin: 0cm; text-indent: 35.45pt;&quot; class=&quot;MsoListParagraph&quot;&gt;возможности для тест-драйва&amp;nbsp;&lt;/p&gt;&lt;p style=&quot;border-color: var(--border-color); margin: 0cm; text-indent: 35.45pt;&quot; class=&quot;MsoListParagraph&quot;&gt;выбранного автомобиля&lt;/p&gt;" style="text;html=1;align=center;verticalAlign=middle;resizable=0;points=[];autosize=1;strokeColor=none;fillColor=none;fontSize=9;" vertex="1" parent="1">
          <mxGeometry x="67.00000000000001" y="488" width="200" height="50" as="geometry" />
        </mxCell>
        <mxCell id="eWaYEDoaf7_sY-xYZwq4-152" value="" style="endArrow=none;html=1;rounded=0;entryX=0.5;entryY=1;entryDx=0;entryDy=0;" edge="1" parent="1">
          <mxGeometry width="50" height="50" relative="1" as="geometry">
            <mxPoint x="190.44" y="544" as="sourcePoint" />
            <mxPoint x="190.44" y="564" as="targetPoint" />
          </mxGeometry>
        </mxCell>
        <mxCell id="eWaYEDoaf7_sY-xYZwq4-153" value="" style="endArrow=none;html=1;rounded=0;exitX=1;exitY=0.5;exitDx=0;exitDy=0;startArrow=classic;startFill=1;endFill=0;" edge="1" parent="1">
          <mxGeometry width="50" height="50" relative="1" as="geometry">
            <mxPoint x="268" y="518.14" as="sourcePoint" />
            <mxPoint x="309" y="518.14" as="targetPoint" />
          </mxGeometry>
        </mxCell>
        <mxCell id="eWaYEDoaf7_sY-xYZwq4-155" value="Рекомендации клиенту &lt;br&gt;относительно доступных&lt;br&gt;автомобилей" style="text;html=1;align=center;verticalAlign=middle;resizable=0;points=[];autosize=1;strokeColor=none;fillColor=none;fontSize=7;" vertex="1" parent="1">
          <mxGeometry x="4.999999999999998" y="469.5" width="100" height="40" as="geometry" />
        </mxCell>
        <mxCell id="eWaYEDoaf7_sY-xYZwq4-158" value="Запрос клиента, &lt;br style=&quot;font-size: 7px;&quot;&gt;информация о &lt;br style=&quot;font-size: 7px;&quot;&gt;доступных автомобилях." style="text;html=1;align=center;verticalAlign=middle;resizable=0;points=[];autosize=1;strokeColor=none;fillColor=none;fontSize=7;" vertex="1" parent="1">
          <mxGeometry x="13" y="351" width="100" height="40" as="geometry" />
        </mxCell>
        <mxCell id="eWaYEDoaf7_sY-xYZwq4-160" value="Поиск и предоставление &lt;br&gt;информации о доступных &lt;br&gt;автомобилях,&amp;nbsp;соответствующих &lt;br&gt;требованиям клиента" style="text;html=1;align=center;verticalAlign=middle;resizable=0;points=[];autosize=1;strokeColor=none;fillColor=none;fontSize=9;" vertex="1" parent="1">
          <mxGeometry x="306" y="358" width="160" height="60" as="geometry" />
        </mxCell>
        <mxCell id="eWaYEDoaf7_sY-xYZwq4-162" value="" style="rounded=0;whiteSpace=wrap;html=1;gradientColor=none;glass=0;shadow=0;" vertex="1" parent="1">
          <mxGeometry x="668.78" y="349.5" width="155" height="90" as="geometry" />
        </mxCell>
        <mxCell id="eWaYEDoaf7_sY-xYZwq4-163" value="" style="endArrow=none;html=1;rounded=0;exitX=0.003;exitY=0.15;exitDx=0;exitDy=0;entryX=0.077;entryY=0;entryDx=0;entryDy=0;entryPerimeter=0;jumpSize=100;endSize=6;jumpStyle=none;exitPerimeter=0;" edge="1" source="eWaYEDoaf7_sY-xYZwq4-162" target="eWaYEDoaf7_sY-xYZwq4-162" parent="1">
          <mxGeometry width="50" height="50" relative="1" as="geometry">
            <mxPoint x="668.78" y="362.81999999999994" as="sourcePoint" />
            <mxPoint x="683.3" y="349.5" as="targetPoint" />
          </mxGeometry>
        </mxCell>
        <mxCell id="eWaYEDoaf7_sY-xYZwq4-164" value="0р." style="text;html=1;align=center;verticalAlign=middle;resizable=0;points=[];autosize=1;strokeColor=none;fillColor=none;fontSize=5;" vertex="1" parent="1">
          <mxGeometry x="664.78" y="349.5" width="30" height="20" as="geometry" />
        </mxCell>
        <mxCell id="eWaYEDoaf7_sY-xYZwq4-165" value="" style="endArrow=none;html=1;rounded=0;exitX=0.002;exitY=0.635;exitDx=0;exitDy=0;exitPerimeter=0;entryX=1.005;entryY=0.786;entryDx=0;entryDy=0;entryPerimeter=0;" edge="1" parent="1">
          <mxGeometry width="50" height="50" relative="1" as="geometry">
            <mxPoint x="669.02" y="419.6" as="sourcePoint" />
            <mxPoint x="824.5550000000001" y="419.24" as="targetPoint" />
          </mxGeometry>
        </mxCell>
        <mxCell id="eWaYEDoaf7_sY-xYZwq4-166" value="2.2.1" style="text;html=1;align=center;verticalAlign=middle;resizable=0;points=[];autosize=1;strokeColor=none;fillColor=none;fontSize=8;" vertex="1" parent="1">
          <mxGeometry x="665.78" y="420.5" width="40" height="20" as="geometry" />
        </mxCell>
        <mxCell id="eWaYEDoaf7_sY-xYZwq4-167" value="&lt;p style=&quot;margin: 0cm; text-indent: 35.45pt;&quot; class=&quot;MsoListParagraph&quot;&gt;Подготовка&lt;/p&gt;&lt;p style=&quot;margin: 0cm; text-indent: 35.45pt;&quot; class=&quot;MsoListParagraph&quot;&gt;документов для&amp;nbsp;&lt;/p&gt;&lt;p style=&quot;margin: 0cm; text-indent: 35.45pt;&quot; class=&quot;MsoListParagraph&quot;&gt;оформления продажи (договор&amp;nbsp;&lt;/p&gt;&lt;p style=&quot;margin: 0cm; text-indent: 35.45pt;&quot; class=&quot;MsoListParagraph&quot;&gt;купли-продажи, акт приема-&lt;/p&gt;&lt;p style=&quot;margin: 0cm; text-indent: 35.45pt;&quot; class=&quot;MsoListParagraph&quot;&gt;передачи и&lt;/p&gt;&lt;p style=&quot;margin: 0cm; text-indent: 35.45pt;&quot; class=&quot;MsoListParagraph&quot;&gt;т. д.)&lt;/p&gt;" style="text;html=1;align=center;verticalAlign=middle;resizable=0;points=[];autosize=1;strokeColor=none;fillColor=none;fontSize=9;" vertex="1" parent="1">
          <mxGeometry x="622.78" y="346.5" width="200" height="80" as="geometry" />
        </mxCell>
        <mxCell id="eWaYEDoaf7_sY-xYZwq4-168" value="" style="endArrow=none;html=1;rounded=0;entryX=0.5;entryY=1;entryDx=0;entryDy=0;" edge="1" parent="1">
          <mxGeometry width="50" height="50" relative="1" as="geometry">
            <mxPoint x="746.22" y="419.5" as="sourcePoint" />
            <mxPoint x="746.22" y="439.5" as="targetPoint" />
          </mxGeometry>
        </mxCell>
        <mxCell id="eWaYEDoaf7_sY-xYZwq4-169" value="" style="rounded=0;whiteSpace=wrap;html=1;gradientColor=none;glass=0;shadow=0;" vertex="1" parent="1">
          <mxGeometry x="864.56" y="348.5" width="155" height="90" as="geometry" />
        </mxCell>
        <mxCell id="eWaYEDoaf7_sY-xYZwq4-170" value="" style="endArrow=none;html=1;rounded=0;exitX=0.003;exitY=0.15;exitDx=0;exitDy=0;entryX=0.077;entryY=0;entryDx=0;entryDy=0;entryPerimeter=0;jumpSize=100;endSize=6;jumpStyle=none;exitPerimeter=0;" edge="1" source="eWaYEDoaf7_sY-xYZwq4-169" target="eWaYEDoaf7_sY-xYZwq4-169" parent="1">
          <mxGeometry width="50" height="50" relative="1" as="geometry">
            <mxPoint x="864.56" y="361.81999999999994" as="sourcePoint" />
            <mxPoint x="879.0799999999999" y="348.5" as="targetPoint" />
          </mxGeometry>
        </mxCell>
        <mxCell id="eWaYEDoaf7_sY-xYZwq4-171" value="0р." style="text;html=1;align=center;verticalAlign=middle;resizable=0;points=[];autosize=1;strokeColor=none;fillColor=none;fontSize=5;" vertex="1" parent="1">
          <mxGeometry x="860.56" y="348.5" width="30" height="20" as="geometry" />
        </mxCell>
        <mxCell id="eWaYEDoaf7_sY-xYZwq4-172" value="" style="endArrow=none;html=1;rounded=0;exitX=0.002;exitY=0.635;exitDx=0;exitDy=0;exitPerimeter=0;entryX=1.005;entryY=0.786;entryDx=0;entryDy=0;entryPerimeter=0;" edge="1" parent="1">
          <mxGeometry width="50" height="50" relative="1" as="geometry">
            <mxPoint x="864.8" y="418.6" as="sourcePoint" />
            <mxPoint x="1020.335" y="418.24" as="targetPoint" />
          </mxGeometry>
        </mxCell>
        <mxCell id="eWaYEDoaf7_sY-xYZwq4-173" value="2.2.2" style="text;html=1;align=center;verticalAlign=middle;resizable=0;points=[];autosize=1;strokeColor=none;fillColor=none;fontSize=8;" vertex="1" parent="1">
          <mxGeometry x="861.56" y="419.5" width="40" height="20" as="geometry" />
        </mxCell>
        <mxCell id="eWaYEDoaf7_sY-xYZwq4-174" value="" style="endArrow=none;html=1;rounded=0;entryX=0.5;entryY=1;entryDx=0;entryDy=0;" edge="1" parent="1">
          <mxGeometry width="50" height="50" relative="1" as="geometry">
            <mxPoint x="942" y="418.5" as="sourcePoint" />
            <mxPoint x="942" y="438.5" as="targetPoint" />
          </mxGeometry>
        </mxCell>
        <mxCell id="eWaYEDoaf7_sY-xYZwq4-175" value="" style="endArrow=classic;html=1;rounded=0;exitX=1;exitY=0.5;exitDx=0;exitDy=0;" edge="1" source="eWaYEDoaf7_sY-xYZwq4-162" target="eWaYEDoaf7_sY-xYZwq4-169" parent="1">
          <mxGeometry width="50" height="50" relative="1" as="geometry">
            <mxPoint x="828.56" y="442.5" as="sourcePoint" />
            <mxPoint x="868.56" y="392.5" as="targetPoint" />
          </mxGeometry>
        </mxCell>
        <mxCell id="eWaYEDoaf7_sY-xYZwq4-176" value="" style="rounded=0;whiteSpace=wrap;html=1;gradientColor=none;glass=0;shadow=0;" vertex="1" parent="1">
          <mxGeometry x="864.56" y="472" width="155" height="90" as="geometry" />
        </mxCell>
        <mxCell id="eWaYEDoaf7_sY-xYZwq4-177" value="" style="endArrow=none;html=1;rounded=0;exitX=0.003;exitY=0.15;exitDx=0;exitDy=0;entryX=0.077;entryY=0;entryDx=0;entryDy=0;entryPerimeter=0;jumpSize=100;endSize=6;jumpStyle=none;exitPerimeter=0;" edge="1" source="eWaYEDoaf7_sY-xYZwq4-176" target="eWaYEDoaf7_sY-xYZwq4-176" parent="1">
          <mxGeometry width="50" height="50" relative="1" as="geometry">
            <mxPoint x="864.56" y="485.31999999999994" as="sourcePoint" />
            <mxPoint x="879.0799999999999" y="472" as="targetPoint" />
          </mxGeometry>
        </mxCell>
        <mxCell id="eWaYEDoaf7_sY-xYZwq4-178" value="0р." style="text;html=1;align=center;verticalAlign=middle;resizable=0;points=[];autosize=1;strokeColor=none;fillColor=none;fontSize=5;" vertex="1" parent="1">
          <mxGeometry x="860.56" y="472" width="30" height="20" as="geometry" />
        </mxCell>
        <mxCell id="eWaYEDoaf7_sY-xYZwq4-179" value="" style="endArrow=none;html=1;rounded=0;exitX=0.002;exitY=0.635;exitDx=0;exitDy=0;exitPerimeter=0;entryX=1.005;entryY=0.786;entryDx=0;entryDy=0;entryPerimeter=0;" edge="1" parent="1">
          <mxGeometry width="50" height="50" relative="1" as="geometry">
            <mxPoint x="864.8" y="542.1" as="sourcePoint" />
            <mxPoint x="1020.335" y="541.74" as="targetPoint" />
          </mxGeometry>
        </mxCell>
        <mxCell id="eWaYEDoaf7_sY-xYZwq4-180" value="2.2.3" style="text;html=1;align=center;verticalAlign=middle;resizable=0;points=[];autosize=1;strokeColor=none;fillColor=none;fontSize=8;" vertex="1" parent="1">
          <mxGeometry x="861.56" y="543" width="40" height="20" as="geometry" />
        </mxCell>
        <mxCell id="eWaYEDoaf7_sY-xYZwq4-181" value="&lt;p style=&quot;border-color: var(--border-color); margin: 0cm; text-indent: 35.45pt;&quot; class=&quot;MsoListParagraph&quot;&gt;Проверка и регистрация&amp;nbsp;&lt;/p&gt;&lt;p style=&quot;border-color: var(--border-color); margin: 0cm; text-indent: 35.45pt;&quot; class=&quot;MsoListParagraph&quot;&gt;документов в соответствующих&amp;nbsp;&lt;/p&gt;&lt;p style=&quot;border-color: var(--border-color); margin: 0cm; text-indent: 35.45pt;&quot; class=&quot;MsoListParagraph&quot;&gt;органах&lt;br&gt;&lt;/p&gt;" style="text;html=1;align=center;verticalAlign=middle;resizable=0;points=[];autosize=1;strokeColor=none;fillColor=none;fontSize=9;" vertex="1" parent="1">
          <mxGeometry x="813.56" y="484" width="210" height="50" as="geometry" />
        </mxCell>
        <mxCell id="eWaYEDoaf7_sY-xYZwq4-182" value="" style="endArrow=none;html=1;rounded=0;entryX=0.5;entryY=1;entryDx=0;entryDy=0;" edge="1" parent="1">
          <mxGeometry width="50" height="50" relative="1" as="geometry">
            <mxPoint x="942" y="542" as="sourcePoint" />
            <mxPoint x="942" y="562" as="targetPoint" />
          </mxGeometry>
        </mxCell>
        <mxCell id="eWaYEDoaf7_sY-xYZwq4-183" value="" style="endArrow=classic;html=1;rounded=0;exitX=0.5;exitY=1;exitDx=0;exitDy=0;entryX=0.5;entryY=0;entryDx=0;entryDy=0;" edge="1" parent="1">
          <mxGeometry width="50" height="50" relative="1" as="geometry">
            <mxPoint x="956.06" y="437.5" as="sourcePoint" />
            <mxPoint x="956.06" y="471" as="targetPoint" />
          </mxGeometry>
        </mxCell>
        <mxCell id="eWaYEDoaf7_sY-xYZwq4-184" value="" style="rounded=0;whiteSpace=wrap;html=1;gradientColor=none;glass=0;shadow=0;" vertex="1" parent="1">
          <mxGeometry x="668" y="472.5" width="155" height="90" as="geometry" />
        </mxCell>
        <mxCell id="eWaYEDoaf7_sY-xYZwq4-185" value="" style="endArrow=none;html=1;rounded=0;exitX=0.003;exitY=0.15;exitDx=0;exitDy=0;entryX=0.077;entryY=0;entryDx=0;entryDy=0;entryPerimeter=0;jumpSize=100;endSize=6;jumpStyle=none;exitPerimeter=0;" edge="1" source="eWaYEDoaf7_sY-xYZwq4-184" target="eWaYEDoaf7_sY-xYZwq4-184" parent="1">
          <mxGeometry width="50" height="50" relative="1" as="geometry">
            <mxPoint x="668" y="485.81999999999994" as="sourcePoint" />
            <mxPoint x="682.52" y="472.5" as="targetPoint" />
          </mxGeometry>
        </mxCell>
        <mxCell id="eWaYEDoaf7_sY-xYZwq4-186" value="0р." style="text;html=1;align=center;verticalAlign=middle;resizable=0;points=[];autosize=1;strokeColor=none;fillColor=none;fontSize=5;" vertex="1" parent="1">
          <mxGeometry x="664" y="472.5" width="30" height="20" as="geometry" />
        </mxCell>
        <mxCell id="eWaYEDoaf7_sY-xYZwq4-187" value="" style="endArrow=none;html=1;rounded=0;exitX=0.002;exitY=0.635;exitDx=0;exitDy=0;exitPerimeter=0;entryX=1.005;entryY=0.786;entryDx=0;entryDy=0;entryPerimeter=0;" edge="1" parent="1">
          <mxGeometry width="50" height="50" relative="1" as="geometry">
            <mxPoint x="668.24" y="542.6" as="sourcePoint" />
            <mxPoint x="823.7750000000001" y="542.24" as="targetPoint" />
          </mxGeometry>
        </mxCell>
        <mxCell id="eWaYEDoaf7_sY-xYZwq4-188" value="2.2.4" style="text;html=1;align=center;verticalAlign=middle;resizable=0;points=[];autosize=1;strokeColor=none;fillColor=none;fontSize=8;" vertex="1" parent="1">
          <mxGeometry x="665" y="543.5" width="40" height="20" as="geometry" />
        </mxCell>
        <mxCell id="eWaYEDoaf7_sY-xYZwq4-189" value="&lt;p style=&quot;border-color: var(--border-color); margin: 0cm; text-indent: 35.45pt;&quot; class=&quot;MsoListParagraph&quot;&gt;Организация доставки автомобиля&amp;nbsp;&lt;/p&gt;&lt;p style=&quot;border-color: var(--border-color); margin: 0cm; text-indent: 35.45pt;&quot; class=&quot;MsoListParagraph&quot;&gt;клиенту (при необходимости)&lt;br&gt;&lt;/p&gt;" style="text;html=1;align=center;verticalAlign=middle;resizable=0;points=[];autosize=1;strokeColor=none;fillColor=none;fontSize=9;" vertex="1" parent="1">
          <mxGeometry x="612" y="491.5" width="220" height="40" as="geometry" />
        </mxCell>
        <mxCell id="eWaYEDoaf7_sY-xYZwq4-190" value="" style="endArrow=none;html=1;rounded=0;entryX=0.5;entryY=1;entryDx=0;entryDy=0;" edge="1" parent="1">
          <mxGeometry width="50" height="50" relative="1" as="geometry">
            <mxPoint x="745.44" y="542.5" as="sourcePoint" />
            <mxPoint x="745.44" y="562.5" as="targetPoint" />
          </mxGeometry>
        </mxCell>
        <mxCell id="eWaYEDoaf7_sY-xYZwq4-191" value="" style="endArrow=none;html=1;rounded=0;exitX=1;exitY=0.5;exitDx=0;exitDy=0;startArrow=classic;startFill=1;endFill=0;" edge="1" parent="1">
          <mxGeometry width="50" height="50" relative="1" as="geometry">
            <mxPoint x="823" y="516.64" as="sourcePoint" />
            <mxPoint x="864" y="516.64" as="targetPoint" />
          </mxGeometry>
        </mxCell>
        <mxCell id="eWaYEDoaf7_sY-xYZwq4-192" value="" style="endArrow=none;html=1;rounded=0;entryX=0;entryY=0.5;entryDx=0;entryDy=0;startArrow=classic;startFill=1;endFill=0;exitX=0.988;exitY=0.632;exitDx=0;exitDy=0;exitPerimeter=0;" edge="1" parent="1" source="eWaYEDoaf7_sY-xYZwq4-319">
          <mxGeometry width="50" height="50" relative="1" as="geometry">
            <mxPoint x="568" y="521" as="sourcePoint" />
            <mxPoint x="668" y="521" as="targetPoint" />
          </mxGeometry>
        </mxCell>
        <mxCell id="eWaYEDoaf7_sY-xYZwq4-193" value="Оформленная продажа, &lt;br&gt;заключенный договор" style="text;html=1;align=center;verticalAlign=middle;resizable=0;points=[];autosize=1;strokeColor=none;fillColor=none;fontSize=7;" vertex="1" parent="1">
          <mxGeometry x="560" y="487" width="100" height="30" as="geometry" />
        </mxCell>
        <mxCell id="eWaYEDoaf7_sY-xYZwq4-194" value="Выбранный клиентом &lt;br&gt;автомобиль, &lt;br&gt;необходимые&lt;br/&gt;документы" style="text;html=1;align=center;verticalAlign=middle;resizable=0;points=[];autosize=1;strokeColor=none;fillColor=none;fontSize=7;" vertex="1" parent="1">
          <mxGeometry x="573" y="344.5" width="90" height="50" as="geometry" />
        </mxCell>
        <mxCell id="eWaYEDoaf7_sY-xYZwq4-195" value="Предоставление&lt;br/&gt;документов &lt;br&gt;клиенту для ознакомления &lt;br&gt;и подписания" style="text;html=1;align=center;verticalAlign=middle;resizable=0;points=[];autosize=1;strokeColor=none;fillColor=none;fontSize=9;" vertex="1" parent="1">
          <mxGeometry x="871" y="356.5" width="140" height="60" as="geometry" />
        </mxCell>
        <mxCell id="eWaYEDoaf7_sY-xYZwq4-232" value="" style="rounded=0;whiteSpace=wrap;html=1;gradientColor=none;glass=0;shadow=0;" vertex="1" parent="1">
          <mxGeometry x="113.78000000000002" y="636.5" width="155" height="90" as="geometry" />
        </mxCell>
        <mxCell id="eWaYEDoaf7_sY-xYZwq4-233" value="" style="endArrow=none;html=1;rounded=0;exitX=0.003;exitY=0.15;exitDx=0;exitDy=0;entryX=0.077;entryY=0;entryDx=0;entryDy=0;entryPerimeter=0;jumpSize=100;endSize=6;jumpStyle=none;exitPerimeter=0;" edge="1" source="eWaYEDoaf7_sY-xYZwq4-232" target="eWaYEDoaf7_sY-xYZwq4-232" parent="1">
          <mxGeometry width="50" height="50" relative="1" as="geometry">
            <mxPoint x="113.78000000000002" y="649.8199999999999" as="sourcePoint" />
            <mxPoint x="128.29999999999998" y="636.5" as="targetPoint" />
          </mxGeometry>
        </mxCell>
        <mxCell id="eWaYEDoaf7_sY-xYZwq4-234" value="0р." style="text;html=1;align=center;verticalAlign=middle;resizable=0;points=[];autosize=1;strokeColor=none;fillColor=none;fontSize=5;" vertex="1" parent="1">
          <mxGeometry x="109.78000000000002" y="636.5" width="30" height="20" as="geometry" />
        </mxCell>
        <mxCell id="eWaYEDoaf7_sY-xYZwq4-235" value="" style="endArrow=none;html=1;rounded=0;exitX=0.002;exitY=0.635;exitDx=0;exitDy=0;exitPerimeter=0;entryX=1.005;entryY=0.786;entryDx=0;entryDy=0;entryPerimeter=0;" edge="1" parent="1">
          <mxGeometry width="50" height="50" relative="1" as="geometry">
            <mxPoint x="114.02000000000002" y="706.6" as="sourcePoint" />
            <mxPoint x="269.5550000000001" y="706.24" as="targetPoint" />
          </mxGeometry>
        </mxCell>
        <mxCell id="eWaYEDoaf7_sY-xYZwq4-236" value="3.1.1" style="text;html=1;align=center;verticalAlign=middle;resizable=0;points=[];autosize=1;strokeColor=none;fillColor=none;fontSize=8;" vertex="1" parent="1">
          <mxGeometry x="110.78000000000002" y="707.5" width="40" height="20" as="geometry" />
        </mxCell>
        <mxCell id="eWaYEDoaf7_sY-xYZwq4-237" value="&lt;p style=&quot;margin: 0cm; text-indent: 35.45pt;&quot; class=&quot;MsoListParagraph&quot;&gt;Прием заявки и регистрация&amp;nbsp;&lt;/p&gt;&lt;p style=&quot;margin: 0cm; text-indent: 35.45pt;&quot; class=&quot;MsoListParagraph&quot;&gt;в системе&lt;br&gt;&lt;/p&gt;" style="text;html=1;align=center;verticalAlign=middle;resizable=0;points=[];autosize=1;strokeColor=none;fillColor=none;fontSize=9;" vertex="1" parent="1">
          <mxGeometry x="72.78000000000002" y="653.5" width="190" height="40" as="geometry" />
        </mxCell>
        <mxCell id="eWaYEDoaf7_sY-xYZwq4-238" value="" style="endArrow=none;html=1;rounded=0;entryX=0.5;entryY=1;entryDx=0;entryDy=0;" edge="1" parent="1">
          <mxGeometry width="50" height="50" relative="1" as="geometry">
            <mxPoint x="191.22000000000003" y="706.5" as="sourcePoint" />
            <mxPoint x="191.22000000000003" y="726.5" as="targetPoint" />
          </mxGeometry>
        </mxCell>
        <mxCell id="eWaYEDoaf7_sY-xYZwq4-239" value="" style="rounded=0;whiteSpace=wrap;html=1;gradientColor=none;glass=0;shadow=0;" vertex="1" parent="1">
          <mxGeometry x="309.56" y="635.5" width="155" height="90" as="geometry" />
        </mxCell>
        <mxCell id="eWaYEDoaf7_sY-xYZwq4-240" value="" style="endArrow=none;html=1;rounded=0;exitX=0.003;exitY=0.15;exitDx=0;exitDy=0;entryX=0.077;entryY=0;entryDx=0;entryDy=0;entryPerimeter=0;jumpSize=100;endSize=6;jumpStyle=none;exitPerimeter=0;" edge="1" source="eWaYEDoaf7_sY-xYZwq4-239" target="eWaYEDoaf7_sY-xYZwq4-239" parent="1">
          <mxGeometry width="50" height="50" relative="1" as="geometry">
            <mxPoint x="309.56" y="648.8199999999999" as="sourcePoint" />
            <mxPoint x="324.08" y="635.5" as="targetPoint" />
          </mxGeometry>
        </mxCell>
        <mxCell id="eWaYEDoaf7_sY-xYZwq4-241" value="0р." style="text;html=1;align=center;verticalAlign=middle;resizable=0;points=[];autosize=1;strokeColor=none;fillColor=none;fontSize=5;" vertex="1" parent="1">
          <mxGeometry x="305.56" y="635.5" width="30" height="20" as="geometry" />
        </mxCell>
        <mxCell id="eWaYEDoaf7_sY-xYZwq4-242" value="" style="endArrow=none;html=1;rounded=0;exitX=0.002;exitY=0.635;exitDx=0;exitDy=0;exitPerimeter=0;entryX=1.005;entryY=0.786;entryDx=0;entryDy=0;entryPerimeter=0;" edge="1" parent="1">
          <mxGeometry width="50" height="50" relative="1" as="geometry">
            <mxPoint x="309.8" y="705.6" as="sourcePoint" />
            <mxPoint x="465.3350000000001" y="705.24" as="targetPoint" />
          </mxGeometry>
        </mxCell>
        <mxCell id="eWaYEDoaf7_sY-xYZwq4-243" value="3.1.2" style="text;html=1;align=center;verticalAlign=middle;resizable=0;points=[];autosize=1;strokeColor=none;fillColor=none;fontSize=8;" vertex="1" parent="1">
          <mxGeometry x="306.56" y="706.5" width="40" height="20" as="geometry" />
        </mxCell>
        <mxCell id="eWaYEDoaf7_sY-xYZwq4-244" value="" style="endArrow=none;html=1;rounded=0;entryX=0.5;entryY=1;entryDx=0;entryDy=0;" edge="1" parent="1">
          <mxGeometry width="50" height="50" relative="1" as="geometry">
            <mxPoint x="387" y="705.5" as="sourcePoint" />
            <mxPoint x="387" y="725.5" as="targetPoint" />
          </mxGeometry>
        </mxCell>
        <mxCell id="eWaYEDoaf7_sY-xYZwq4-245" value="" style="endArrow=classic;html=1;rounded=0;exitX=1;exitY=0.5;exitDx=0;exitDy=0;" edge="1" source="eWaYEDoaf7_sY-xYZwq4-232" target="eWaYEDoaf7_sY-xYZwq4-239" parent="1">
          <mxGeometry width="50" height="50" relative="1" as="geometry">
            <mxPoint x="273.56" y="729.5" as="sourcePoint" />
            <mxPoint x="313.56" y="679.5" as="targetPoint" />
          </mxGeometry>
        </mxCell>
        <mxCell id="eWaYEDoaf7_sY-xYZwq4-246" value="" style="rounded=0;whiteSpace=wrap;html=1;gradientColor=none;glass=0;shadow=0;" vertex="1" parent="1">
          <mxGeometry x="309.56" y="759" width="155" height="90" as="geometry" />
        </mxCell>
        <mxCell id="eWaYEDoaf7_sY-xYZwq4-247" value="" style="endArrow=none;html=1;rounded=0;exitX=0.003;exitY=0.15;exitDx=0;exitDy=0;entryX=0.077;entryY=0;entryDx=0;entryDy=0;entryPerimeter=0;jumpSize=100;endSize=6;jumpStyle=none;exitPerimeter=0;" edge="1" source="eWaYEDoaf7_sY-xYZwq4-246" target="eWaYEDoaf7_sY-xYZwq4-246" parent="1">
          <mxGeometry width="50" height="50" relative="1" as="geometry">
            <mxPoint x="309.56" y="772.3199999999999" as="sourcePoint" />
            <mxPoint x="324.08" y="759" as="targetPoint" />
          </mxGeometry>
        </mxCell>
        <mxCell id="eWaYEDoaf7_sY-xYZwq4-248" value="0р." style="text;html=1;align=center;verticalAlign=middle;resizable=0;points=[];autosize=1;strokeColor=none;fillColor=none;fontSize=5;" vertex="1" parent="1">
          <mxGeometry x="305.56" y="759" width="30" height="20" as="geometry" />
        </mxCell>
        <mxCell id="eWaYEDoaf7_sY-xYZwq4-249" value="" style="endArrow=none;html=1;rounded=0;exitX=0.002;exitY=0.635;exitDx=0;exitDy=0;exitPerimeter=0;entryX=1.005;entryY=0.786;entryDx=0;entryDy=0;entryPerimeter=0;" edge="1" parent="1">
          <mxGeometry width="50" height="50" relative="1" as="geometry">
            <mxPoint x="309.8" y="829.1" as="sourcePoint" />
            <mxPoint x="465.3350000000001" y="828.74" as="targetPoint" />
          </mxGeometry>
        </mxCell>
        <mxCell id="eWaYEDoaf7_sY-xYZwq4-250" value="3.1.3" style="text;html=1;align=center;verticalAlign=middle;resizable=0;points=[];autosize=1;strokeColor=none;fillColor=none;fontSize=8;" vertex="1" parent="1">
          <mxGeometry x="306.56" y="830" width="40" height="20" as="geometry" />
        </mxCell>
        <mxCell id="eWaYEDoaf7_sY-xYZwq4-251" value="&lt;p style=&quot;border-color: var(--border-color); margin: 0cm; text-indent: 35.45pt;&quot; class=&quot;MsoListParagraph&quot;&gt;Планирование и назначение&amp;nbsp;&lt;/p&gt;&lt;p style=&quot;border-color: var(--border-color); margin: 0cm; text-indent: 35.45pt;&quot; class=&quot;MsoListParagraph&quot;&gt;времени для проведения&amp;nbsp;&lt;/p&gt;&lt;p style=&quot;border-color: var(--border-color); margin: 0cm; text-indent: 35.45pt;&quot; class=&quot;MsoListParagraph&quot;&gt;технического обслуживания&amp;nbsp;&lt;/p&gt;&lt;p style=&quot;border-color: var(--border-color); margin: 0cm; text-indent: 35.45pt;&quot; class=&quot;MsoListParagraph&quot;&gt;или ремонта&lt;br&gt;&lt;/p&gt;" style="text;html=1;align=center;verticalAlign=middle;resizable=0;points=[];autosize=1;strokeColor=none;fillColor=none;fontSize=9;" vertex="1" parent="1">
          <mxGeometry x="268.56" y="766" width="190" height="60" as="geometry" />
        </mxCell>
        <mxCell id="eWaYEDoaf7_sY-xYZwq4-252" value="" style="endArrow=none;html=1;rounded=0;entryX=0.5;entryY=1;entryDx=0;entryDy=0;" edge="1" parent="1">
          <mxGeometry width="50" height="50" relative="1" as="geometry">
            <mxPoint x="387.00000000000006" y="829" as="sourcePoint" />
            <mxPoint x="387.00000000000006" y="849" as="targetPoint" />
          </mxGeometry>
        </mxCell>
        <mxCell id="eWaYEDoaf7_sY-xYZwq4-253" value="" style="endArrow=classic;html=1;rounded=0;exitX=0.5;exitY=1;exitDx=0;exitDy=0;entryX=0.5;entryY=0;entryDx=0;entryDy=0;" edge="1" parent="1">
          <mxGeometry width="50" height="50" relative="1" as="geometry">
            <mxPoint x="401.06" y="724.5" as="sourcePoint" />
            <mxPoint x="401.06" y="758" as="targetPoint" />
          </mxGeometry>
        </mxCell>
        <mxCell id="eWaYEDoaf7_sY-xYZwq4-254" value="" style="rounded=0;whiteSpace=wrap;html=1;gradientColor=none;glass=0;shadow=0;" vertex="1" parent="1">
          <mxGeometry x="113.00000000000001" y="759.5" width="155" height="90" as="geometry" />
        </mxCell>
        <mxCell id="eWaYEDoaf7_sY-xYZwq4-255" value="" style="endArrow=none;html=1;rounded=0;exitX=0.003;exitY=0.15;exitDx=0;exitDy=0;entryX=0.077;entryY=0;entryDx=0;entryDy=0;entryPerimeter=0;jumpSize=100;endSize=6;jumpStyle=none;exitPerimeter=0;" edge="1" source="eWaYEDoaf7_sY-xYZwq4-254" target="eWaYEDoaf7_sY-xYZwq4-254" parent="1">
          <mxGeometry width="50" height="50" relative="1" as="geometry">
            <mxPoint x="113.00000000000001" y="772.8199999999999" as="sourcePoint" />
            <mxPoint x="127.51999999999998" y="759.5" as="targetPoint" />
          </mxGeometry>
        </mxCell>
        <mxCell id="eWaYEDoaf7_sY-xYZwq4-256" value="0р." style="text;html=1;align=center;verticalAlign=middle;resizable=0;points=[];autosize=1;strokeColor=none;fillColor=none;fontSize=5;" vertex="1" parent="1">
          <mxGeometry x="109.00000000000001" y="759.5" width="30" height="20" as="geometry" />
        </mxCell>
        <mxCell id="eWaYEDoaf7_sY-xYZwq4-257" value="" style="endArrow=none;html=1;rounded=0;exitX=0.002;exitY=0.635;exitDx=0;exitDy=0;exitPerimeter=0;entryX=1.005;entryY=0.786;entryDx=0;entryDy=0;entryPerimeter=0;" edge="1" parent="1">
          <mxGeometry width="50" height="50" relative="1" as="geometry">
            <mxPoint x="113.24000000000002" y="829.6" as="sourcePoint" />
            <mxPoint x="268.7750000000001" y="829.24" as="targetPoint" />
          </mxGeometry>
        </mxCell>
        <mxCell id="eWaYEDoaf7_sY-xYZwq4-258" value="3.1.4" style="text;html=1;align=center;verticalAlign=middle;resizable=0;points=[];autosize=1;strokeColor=none;fillColor=none;fontSize=8;" vertex="1" parent="1">
          <mxGeometry x="110.00000000000001" y="830.5" width="40" height="20" as="geometry" />
        </mxCell>
        <mxCell id="eWaYEDoaf7_sY-xYZwq4-259" value="&lt;p style=&quot;border-color: var(--border-color); margin: 0cm; text-indent: 35.45pt;&quot; class=&quot;MsoListParagraph&quot;&gt;Уведомление клиента о&amp;nbsp;&lt;/p&gt;&lt;p style=&quot;border-color: var(--border-color); margin: 0cm; text-indent: 35.45pt;&quot; class=&quot;MsoListParagraph&quot;&gt;назначенном времени и&amp;nbsp;&lt;/p&gt;&lt;p style=&quot;border-color: var(--border-color); margin: 0cm; text-indent: 35.45pt;&quot; class=&quot;MsoListParagraph&quot;&gt;подтверждение записи&lt;br&gt;&lt;/p&gt;" style="text;html=1;align=center;verticalAlign=middle;resizable=0;points=[];autosize=1;strokeColor=none;fillColor=none;fontSize=9;" vertex="1" parent="1">
          <mxGeometry x="82.00000000000001" y="773.5" width="170" height="50" as="geometry" />
        </mxCell>
        <mxCell id="eWaYEDoaf7_sY-xYZwq4-260" value="" style="endArrow=none;html=1;rounded=0;entryX=0.5;entryY=1;entryDx=0;entryDy=0;" edge="1" parent="1">
          <mxGeometry width="50" height="50" relative="1" as="geometry">
            <mxPoint x="190.44" y="829.5" as="sourcePoint" />
            <mxPoint x="190.44" y="849.5" as="targetPoint" />
          </mxGeometry>
        </mxCell>
        <mxCell id="eWaYEDoaf7_sY-xYZwq4-261" value="" style="endArrow=none;html=1;rounded=0;exitX=1;exitY=0.5;exitDx=0;exitDy=0;startArrow=classic;startFill=1;endFill=0;" edge="1" parent="1">
          <mxGeometry width="50" height="50" relative="1" as="geometry">
            <mxPoint x="268" y="803.64" as="sourcePoint" />
            <mxPoint x="309" y="803.64" as="targetPoint" />
          </mxGeometry>
        </mxCell>
        <mxCell id="eWaYEDoaf7_sY-xYZwq4-263" value="Назначенное время и &lt;br&gt;дата для обслуживания или &lt;br&gt;ремонта автомобиля" style="text;html=1;align=center;verticalAlign=middle;resizable=0;points=[];autosize=1;strokeColor=none;fillColor=none;fontSize=7;" vertex="1" parent="1">
          <mxGeometry x="1.9999999999999982" y="765" width="110" height="40" as="geometry" />
        </mxCell>
        <mxCell id="eWaYEDoaf7_sY-xYZwq4-264" value="Заявка на техническое &lt;br&gt;обслуживание или ремонт &lt;br&gt;автомобиля" style="text;html=1;align=center;verticalAlign=middle;resizable=0;points=[];autosize=1;strokeColor=none;fillColor=none;fontSize=7;" vertex="1" parent="1">
          <mxGeometry x="8" y="636.5" width="110" height="40" as="geometry" />
        </mxCell>
        <mxCell id="eWaYEDoaf7_sY-xYZwq4-265" value="Проверка доступности &lt;br&gt;необходимых ресурсов &lt;br&gt;(материалов, оборудования, &lt;br&gt;специалистов)" style="text;html=1;align=center;verticalAlign=middle;resizable=0;points=[];autosize=1;strokeColor=none;fillColor=none;fontSize=9;" vertex="1" parent="1">
          <mxGeometry x="316" y="643.5" width="140" height="60" as="geometry" />
        </mxCell>
        <mxCell id="eWaYEDoaf7_sY-xYZwq4-267" value="" style="rounded=0;whiteSpace=wrap;html=1;gradientColor=none;glass=0;shadow=0;" vertex="1" parent="1">
          <mxGeometry x="668.78" y="635" width="155" height="90" as="geometry" />
        </mxCell>
        <mxCell id="eWaYEDoaf7_sY-xYZwq4-268" value="" style="endArrow=none;html=1;rounded=0;exitX=0.003;exitY=0.15;exitDx=0;exitDy=0;entryX=0.077;entryY=0;entryDx=0;entryDy=0;entryPerimeter=0;jumpSize=100;endSize=6;jumpStyle=none;exitPerimeter=0;" edge="1" source="eWaYEDoaf7_sY-xYZwq4-267" target="eWaYEDoaf7_sY-xYZwq4-267" parent="1">
          <mxGeometry width="50" height="50" relative="1" as="geometry">
            <mxPoint x="668.78" y="648.3199999999999" as="sourcePoint" />
            <mxPoint x="683.3" y="635" as="targetPoint" />
          </mxGeometry>
        </mxCell>
        <mxCell id="eWaYEDoaf7_sY-xYZwq4-269" value="0р." style="text;html=1;align=center;verticalAlign=middle;resizable=0;points=[];autosize=1;strokeColor=none;fillColor=none;fontSize=5;" vertex="1" parent="1">
          <mxGeometry x="664.78" y="635" width="30" height="20" as="geometry" />
        </mxCell>
        <mxCell id="eWaYEDoaf7_sY-xYZwq4-270" value="" style="endArrow=none;html=1;rounded=0;exitX=0.002;exitY=0.635;exitDx=0;exitDy=0;exitPerimeter=0;entryX=1.005;entryY=0.786;entryDx=0;entryDy=0;entryPerimeter=0;" edge="1" parent="1">
          <mxGeometry width="50" height="50" relative="1" as="geometry">
            <mxPoint x="669.02" y="705.1" as="sourcePoint" />
            <mxPoint x="824.5550000000001" y="704.74" as="targetPoint" />
          </mxGeometry>
        </mxCell>
        <mxCell id="eWaYEDoaf7_sY-xYZwq4-271" value="3.2.1" style="text;html=1;align=center;verticalAlign=middle;resizable=0;points=[];autosize=1;strokeColor=none;fillColor=none;fontSize=8;" vertex="1" parent="1">
          <mxGeometry x="665.78" y="706" width="40" height="20" as="geometry" />
        </mxCell>
        <mxCell id="eWaYEDoaf7_sY-xYZwq4-272" value="&lt;p style=&quot;margin: 0cm; text-indent: 35.45pt;&quot; class=&quot;MsoListParagraph&quot;&gt;Проведение диагностики&amp;nbsp;&lt;/p&gt;&lt;p style=&quot;margin: 0cm; text-indent: 35.45pt;&quot; class=&quot;MsoListParagraph&quot;&gt;автомобиля с использованием&amp;nbsp;&lt;/p&gt;&lt;p style=&quot;margin: 0cm; text-indent: 35.45pt;&quot; class=&quot;MsoListParagraph&quot;&gt;современного оборудования;&lt;br&gt;&lt;/p&gt;" style="text;html=1;align=center;verticalAlign=middle;resizable=0;points=[];autosize=1;strokeColor=none;fillColor=none;fontSize=9;" vertex="1" parent="1">
          <mxGeometry x="622.78" y="647" width="200" height="50" as="geometry" />
        </mxCell>
        <mxCell id="eWaYEDoaf7_sY-xYZwq4-273" value="" style="endArrow=none;html=1;rounded=0;entryX=0.5;entryY=1;entryDx=0;entryDy=0;" edge="1" parent="1">
          <mxGeometry width="50" height="50" relative="1" as="geometry">
            <mxPoint x="746.22" y="705" as="sourcePoint" />
            <mxPoint x="746.22" y="725" as="targetPoint" />
          </mxGeometry>
        </mxCell>
        <mxCell id="eWaYEDoaf7_sY-xYZwq4-274" value="" style="rounded=0;whiteSpace=wrap;html=1;gradientColor=none;glass=0;shadow=0;" vertex="1" parent="1">
          <mxGeometry x="864.56" y="634" width="155" height="90" as="geometry" />
        </mxCell>
        <mxCell id="eWaYEDoaf7_sY-xYZwq4-275" value="" style="endArrow=none;html=1;rounded=0;exitX=0.003;exitY=0.15;exitDx=0;exitDy=0;entryX=0.077;entryY=0;entryDx=0;entryDy=0;entryPerimeter=0;jumpSize=100;endSize=6;jumpStyle=none;exitPerimeter=0;" edge="1" source="eWaYEDoaf7_sY-xYZwq4-274" target="eWaYEDoaf7_sY-xYZwq4-274" parent="1">
          <mxGeometry width="50" height="50" relative="1" as="geometry">
            <mxPoint x="864.56" y="647.3199999999999" as="sourcePoint" />
            <mxPoint x="879.0799999999999" y="634" as="targetPoint" />
          </mxGeometry>
        </mxCell>
        <mxCell id="eWaYEDoaf7_sY-xYZwq4-276" value="0р." style="text;html=1;align=center;verticalAlign=middle;resizable=0;points=[];autosize=1;strokeColor=none;fillColor=none;fontSize=5;" vertex="1" parent="1">
          <mxGeometry x="860.56" y="634" width="30" height="20" as="geometry" />
        </mxCell>
        <mxCell id="eWaYEDoaf7_sY-xYZwq4-277" value="" style="endArrow=none;html=1;rounded=0;exitX=0.002;exitY=0.635;exitDx=0;exitDy=0;exitPerimeter=0;entryX=1.005;entryY=0.786;entryDx=0;entryDy=0;entryPerimeter=0;" edge="1" parent="1">
          <mxGeometry width="50" height="50" relative="1" as="geometry">
            <mxPoint x="864.8" y="704.1" as="sourcePoint" />
            <mxPoint x="1020.335" y="703.74" as="targetPoint" />
          </mxGeometry>
        </mxCell>
        <mxCell id="eWaYEDoaf7_sY-xYZwq4-278" value="3.2.2" style="text;html=1;align=center;verticalAlign=middle;resizable=0;points=[];autosize=1;strokeColor=none;fillColor=none;fontSize=8;" vertex="1" parent="1">
          <mxGeometry x="861.56" y="705" width="40" height="20" as="geometry" />
        </mxCell>
        <mxCell id="eWaYEDoaf7_sY-xYZwq4-279" value="" style="endArrow=none;html=1;rounded=0;entryX=0.5;entryY=1;entryDx=0;entryDy=0;" edge="1" parent="1">
          <mxGeometry width="50" height="50" relative="1" as="geometry">
            <mxPoint x="942" y="704" as="sourcePoint" />
            <mxPoint x="942" y="724" as="targetPoint" />
          </mxGeometry>
        </mxCell>
        <mxCell id="eWaYEDoaf7_sY-xYZwq4-280" value="" style="endArrow=classic;html=1;rounded=0;exitX=1;exitY=0.5;exitDx=0;exitDy=0;" edge="1" source="eWaYEDoaf7_sY-xYZwq4-267" target="eWaYEDoaf7_sY-xYZwq4-274" parent="1">
          <mxGeometry width="50" height="50" relative="1" as="geometry">
            <mxPoint x="828.56" y="728" as="sourcePoint" />
            <mxPoint x="868.56" y="678" as="targetPoint" />
          </mxGeometry>
        </mxCell>
        <mxCell id="eWaYEDoaf7_sY-xYZwq4-281" value="" style="rounded=0;whiteSpace=wrap;html=1;gradientColor=none;glass=0;shadow=0;" vertex="1" parent="1">
          <mxGeometry x="864.56" y="757.5" width="155" height="90" as="geometry" />
        </mxCell>
        <mxCell id="eWaYEDoaf7_sY-xYZwq4-282" value="" style="endArrow=none;html=1;rounded=0;exitX=0.003;exitY=0.15;exitDx=0;exitDy=0;entryX=0.077;entryY=0;entryDx=0;entryDy=0;entryPerimeter=0;jumpSize=100;endSize=6;jumpStyle=none;exitPerimeter=0;" edge="1" source="eWaYEDoaf7_sY-xYZwq4-281" target="eWaYEDoaf7_sY-xYZwq4-281" parent="1">
          <mxGeometry width="50" height="50" relative="1" as="geometry">
            <mxPoint x="864.56" y="770.8199999999999" as="sourcePoint" />
            <mxPoint x="879.0799999999999" y="757.5" as="targetPoint" />
          </mxGeometry>
        </mxCell>
        <mxCell id="eWaYEDoaf7_sY-xYZwq4-283" value="0р." style="text;html=1;align=center;verticalAlign=middle;resizable=0;points=[];autosize=1;strokeColor=none;fillColor=none;fontSize=5;" vertex="1" parent="1">
          <mxGeometry x="860.56" y="757.5" width="30" height="20" as="geometry" />
        </mxCell>
        <mxCell id="eWaYEDoaf7_sY-xYZwq4-284" value="" style="endArrow=none;html=1;rounded=0;exitX=0.002;exitY=0.635;exitDx=0;exitDy=0;exitPerimeter=0;entryX=1.005;entryY=0.786;entryDx=0;entryDy=0;entryPerimeter=0;" edge="1" parent="1">
          <mxGeometry width="50" height="50" relative="1" as="geometry">
            <mxPoint x="864.8" y="827.6" as="sourcePoint" />
            <mxPoint x="1020.335" y="827.24" as="targetPoint" />
          </mxGeometry>
        </mxCell>
        <mxCell id="eWaYEDoaf7_sY-xYZwq4-285" value="3.2.3" style="text;html=1;align=center;verticalAlign=middle;resizable=0;points=[];autosize=1;strokeColor=none;fillColor=none;fontSize=8;" vertex="1" parent="1">
          <mxGeometry x="861.56" y="828.5" width="40" height="20" as="geometry" />
        </mxCell>
        <mxCell id="eWaYEDoaf7_sY-xYZwq4-286" value="&lt;p style=&quot;border-color: var(--border-color); margin: 0cm; text-indent: 35.45pt;&quot; class=&quot;MsoListParagraph&quot;&gt;Планирование и выполнение&amp;nbsp;&lt;/p&gt;&lt;p style=&quot;border-color: var(--border-color); margin: 0cm; text-indent: 35.45pt;&quot; class=&quot;MsoListParagraph&quot;&gt;ремонтных работ&lt;br&gt;&lt;/p&gt;" style="text;html=1;align=center;verticalAlign=middle;resizable=0;points=[];autosize=1;strokeColor=none;fillColor=none;fontSize=9;" vertex="1" parent="1">
          <mxGeometry x="818.56" y="774.5" width="200" height="40" as="geometry" />
        </mxCell>
        <mxCell id="eWaYEDoaf7_sY-xYZwq4-287" value="" style="endArrow=none;html=1;rounded=0;entryX=0.5;entryY=1;entryDx=0;entryDy=0;" edge="1" parent="1">
          <mxGeometry width="50" height="50" relative="1" as="geometry">
            <mxPoint x="942" y="827.5" as="sourcePoint" />
            <mxPoint x="942" y="847.5" as="targetPoint" />
          </mxGeometry>
        </mxCell>
        <mxCell id="eWaYEDoaf7_sY-xYZwq4-288" value="" style="endArrow=classic;html=1;rounded=0;exitX=0.5;exitY=1;exitDx=0;exitDy=0;entryX=0.5;entryY=0;entryDx=0;entryDy=0;" edge="1" parent="1">
          <mxGeometry width="50" height="50" relative="1" as="geometry">
            <mxPoint x="956.06" y="723" as="sourcePoint" />
            <mxPoint x="956.06" y="756.5" as="targetPoint" />
          </mxGeometry>
        </mxCell>
        <mxCell id="eWaYEDoaf7_sY-xYZwq4-289" value="" style="rounded=0;whiteSpace=wrap;html=1;gradientColor=none;glass=0;shadow=0;" vertex="1" parent="1">
          <mxGeometry x="668" y="758" width="155" height="90" as="geometry" />
        </mxCell>
        <mxCell id="eWaYEDoaf7_sY-xYZwq4-290" value="" style="endArrow=none;html=1;rounded=0;exitX=0.003;exitY=0.15;exitDx=0;exitDy=0;entryX=0.077;entryY=0;entryDx=0;entryDy=0;entryPerimeter=0;jumpSize=100;endSize=6;jumpStyle=none;exitPerimeter=0;" edge="1" source="eWaYEDoaf7_sY-xYZwq4-289" target="eWaYEDoaf7_sY-xYZwq4-289" parent="1">
          <mxGeometry width="50" height="50" relative="1" as="geometry">
            <mxPoint x="668" y="771.3199999999999" as="sourcePoint" />
            <mxPoint x="682.52" y="758" as="targetPoint" />
          </mxGeometry>
        </mxCell>
        <mxCell id="eWaYEDoaf7_sY-xYZwq4-291" value="0р." style="text;html=1;align=center;verticalAlign=middle;resizable=0;points=[];autosize=1;strokeColor=none;fillColor=none;fontSize=5;" vertex="1" parent="1">
          <mxGeometry x="664" y="758" width="30" height="20" as="geometry" />
        </mxCell>
        <mxCell id="eWaYEDoaf7_sY-xYZwq4-292" value="" style="endArrow=none;html=1;rounded=0;exitX=0.002;exitY=0.635;exitDx=0;exitDy=0;exitPerimeter=0;entryX=1.005;entryY=0.786;entryDx=0;entryDy=0;entryPerimeter=0;" edge="1" parent="1">
          <mxGeometry width="50" height="50" relative="1" as="geometry">
            <mxPoint x="668.24" y="828.1" as="sourcePoint" />
            <mxPoint x="823.7750000000001" y="827.74" as="targetPoint" />
          </mxGeometry>
        </mxCell>
        <mxCell id="eWaYEDoaf7_sY-xYZwq4-293" value="3.2.4" style="text;html=1;align=center;verticalAlign=middle;resizable=0;points=[];autosize=1;strokeColor=none;fillColor=none;fontSize=8;" vertex="1" parent="1">
          <mxGeometry x="665" y="829" width="40" height="20" as="geometry" />
        </mxCell>
        <mxCell id="eWaYEDoaf7_sY-xYZwq4-294" value="&lt;p style=&quot;border-color: var(--border-color); margin: 0cm; text-indent: 35.45pt;&quot; class=&quot;MsoListParagraph&quot;&gt;Проверка и тестирование&amp;nbsp;&lt;/p&gt;&lt;p style=&quot;border-color: var(--border-color); margin: 0cm; text-indent: 35.45pt;&quot; class=&quot;MsoListParagraph&quot;&gt;автомобиля после ремонта&lt;br&gt;&lt;/p&gt;" style="text;html=1;align=center;verticalAlign=middle;resizable=0;points=[];autosize=1;strokeColor=none;fillColor=none;fontSize=9;" vertex="1" parent="1">
          <mxGeometry x="627" y="777" width="190" height="40" as="geometry" />
        </mxCell>
        <mxCell id="eWaYEDoaf7_sY-xYZwq4-295" value="" style="endArrow=none;html=1;rounded=0;entryX=0.5;entryY=1;entryDx=0;entryDy=0;" edge="1" parent="1">
          <mxGeometry width="50" height="50" relative="1" as="geometry">
            <mxPoint x="745.44" y="828" as="sourcePoint" />
            <mxPoint x="745.44" y="848" as="targetPoint" />
          </mxGeometry>
        </mxCell>
        <mxCell id="eWaYEDoaf7_sY-xYZwq4-296" value="" style="endArrow=none;html=1;rounded=0;exitX=1;exitY=0.5;exitDx=0;exitDy=0;startArrow=classic;startFill=1;endFill=0;" edge="1" parent="1">
          <mxGeometry width="50" height="50" relative="1" as="geometry">
            <mxPoint x="823" y="802.14" as="sourcePoint" />
            <mxPoint x="864" y="802.14" as="targetPoint" />
          </mxGeometry>
        </mxCell>
        <mxCell id="eWaYEDoaf7_sY-xYZwq4-297" value="" style="endArrow=none;html=1;rounded=0;entryX=0;entryY=0.5;entryDx=0;entryDy=0;startArrow=classic;startFill=1;endFill=0;" edge="1" parent="1">
          <mxGeometry width="50" height="50" relative="1" as="geometry">
            <mxPoint x="568" y="806.5" as="sourcePoint" />
            <mxPoint x="668" y="806.5" as="targetPoint" />
          </mxGeometry>
        </mxCell>
        <mxCell id="eWaYEDoaf7_sY-xYZwq4-299" value="Автомобиль, который требует &lt;br&gt;диагностики или&lt;br/&gt;ремонта" style="text;html=1;align=center;verticalAlign=middle;resizable=0;points=[];autosize=1;strokeColor=none;fillColor=none;fontSize=7;" vertex="1" parent="1">
          <mxGeometry x="555" y="635" width="120" height="40" as="geometry" />
        </mxCell>
        <mxCell id="eWaYEDoaf7_sY-xYZwq4-300" value="Определение неисправностей и &lt;br&gt;необходимого объема работ" style="text;html=1;align=center;verticalAlign=middle;resizable=0;points=[];autosize=1;strokeColor=none;fillColor=none;fontSize=9;" vertex="1" parent="1">
          <mxGeometry x="861" y="652" width="160" height="40" as="geometry" />
        </mxCell>
        <mxCell id="eWaYEDoaf7_sY-xYZwq4-301" value="Отремонтированный &lt;br&gt;автомобиль,&amp;nbsp;документация &lt;br&gt;о проведенных работах" style="text;html=1;align=center;verticalAlign=middle;resizable=0;points=[];autosize=1;strokeColor=none;fillColor=none;fontSize=7;" vertex="1" parent="1">
          <mxGeometry x="560" y="759" width="110" height="40" as="geometry" />
        </mxCell>
        <mxCell id="eWaYEDoaf7_sY-xYZwq4-304" value="&lt;font style=&quot;font-size: 15px;&quot;&gt;&amp;amp;&lt;/font&gt;" style="rounded=0;whiteSpace=wrap;html=1;" vertex="1" parent="1">
          <mxGeometry x="490" y="160.5" width="34" height="34" as="geometry" />
        </mxCell>
        <mxCell id="eWaYEDoaf7_sY-xYZwq4-305" value="" style="endArrow=none;html=1;rounded=0;entryX=0.25;entryY=0;entryDx=0;entryDy=0;exitX=0.25;exitY=1;exitDx=0;exitDy=0;" edge="1" parent="1" source="eWaYEDoaf7_sY-xYZwq4-304" target="eWaYEDoaf7_sY-xYZwq4-304">
          <mxGeometry width="50" height="50" relative="1" as="geometry">
            <mxPoint x="419" y="202.5" as="sourcePoint" />
            <mxPoint x="469" y="152.5" as="targetPoint" />
          </mxGeometry>
        </mxCell>
        <mxCell id="eWaYEDoaf7_sY-xYZwq4-306" value="&lt;font style=&quot;font-size: 15px;&quot;&gt;&amp;amp;&lt;/font&gt;" style="rounded=0;whiteSpace=wrap;html=1;" vertex="1" parent="1">
          <mxGeometry x="150" y="-142" width="34" height="34" as="geometry" />
        </mxCell>
        <mxCell id="eWaYEDoaf7_sY-xYZwq4-307" value="" style="endArrow=none;html=1;rounded=0;entryX=0.25;entryY=0;entryDx=0;entryDy=0;exitX=0.25;exitY=1;exitDx=0;exitDy=0;" edge="1" source="eWaYEDoaf7_sY-xYZwq4-306" target="eWaYEDoaf7_sY-xYZwq4-306" parent="1">
          <mxGeometry width="50" height="50" relative="1" as="geometry">
            <mxPoint x="79" y="-100" as="sourcePoint" />
            <mxPoint x="129" y="-150" as="targetPoint" />
          </mxGeometry>
        </mxCell>
        <mxCell id="eWaYEDoaf7_sY-xYZwq4-308" value="&lt;font style=&quot;font-size: 15px;&quot;&gt;&amp;amp;&lt;/font&gt;" style="rounded=0;whiteSpace=wrap;html=1;" vertex="1" parent="1">
          <mxGeometry x="498" y="433.5" width="34" height="34" as="geometry" />
        </mxCell>
        <mxCell id="eWaYEDoaf7_sY-xYZwq4-309" value="" style="endArrow=none;html=1;rounded=0;entryX=0.25;entryY=0;entryDx=0;entryDy=0;exitX=0.25;exitY=1;exitDx=0;exitDy=0;" edge="1" source="eWaYEDoaf7_sY-xYZwq4-308" target="eWaYEDoaf7_sY-xYZwq4-308" parent="1">
          <mxGeometry width="50" height="50" relative="1" as="geometry">
            <mxPoint x="427" y="475.5" as="sourcePoint" />
            <mxPoint x="477" y="425.5" as="targetPoint" />
          </mxGeometry>
        </mxCell>
        <mxCell id="eWaYEDoaf7_sY-xYZwq4-310" value="" style="endArrow=none;html=1;rounded=0;entryX=0;entryY=0.5;entryDx=0;entryDy=0;startArrow=classic;startFill=1;endFill=0;exitX=0;exitY=0.5;exitDx=0;exitDy=0;" edge="1" source="eWaYEDoaf7_sY-xYZwq4-308" parent="1">
          <mxGeometry width="50" height="50" relative="1" as="geometry">
            <mxPoint x="7.4399999999999995" y="511.5" as="sourcePoint" />
            <mxPoint x="107.44" y="511.5" as="targetPoint" />
            <Array as="points">
              <mxPoint x="478" y="451" />
              <mxPoint x="478" y="583" />
              <mxPoint x="8" y="583" />
              <mxPoint x="8" y="512" />
            </Array>
          </mxGeometry>
        </mxCell>
        <mxCell id="eWaYEDoaf7_sY-xYZwq4-311" value="" style="endArrow=classic;html=1;rounded=0;entryX=0;entryY=0.5;entryDx=0;entryDy=0;exitX=1;exitY=0.5;exitDx=0;exitDy=0;" edge="1" parent="1">
          <mxGeometry width="50" height="50" relative="1" as="geometry">
            <mxPoint x="532" y="450.5" as="sourcePoint" />
            <mxPoint x="671.56" y="393" as="targetPoint" />
            <Array as="points">
              <mxPoint x="558" y="451" />
              <mxPoint x="558" y="393" />
            </Array>
          </mxGeometry>
        </mxCell>
        <mxCell id="eWaYEDoaf7_sY-xYZwq4-312" value="&lt;font style=&quot;font-size: 15px;&quot;&gt;&amp;amp;&lt;/font&gt;" style="rounded=0;whiteSpace=wrap;html=1;" vertex="1" parent="1">
          <mxGeometry x="508" y="722.5" width="34" height="34" as="geometry" />
        </mxCell>
        <mxCell id="eWaYEDoaf7_sY-xYZwq4-313" value="" style="endArrow=none;html=1;rounded=0;entryX=0.25;entryY=0;entryDx=0;entryDy=0;exitX=0.25;exitY=1;exitDx=0;exitDy=0;" edge="1" source="eWaYEDoaf7_sY-xYZwq4-312" target="eWaYEDoaf7_sY-xYZwq4-312" parent="1">
          <mxGeometry width="50" height="50" relative="1" as="geometry">
            <mxPoint x="437" y="764.5" as="sourcePoint" />
            <mxPoint x="487" y="714.5" as="targetPoint" />
          </mxGeometry>
        </mxCell>
        <mxCell id="eWaYEDoaf7_sY-xYZwq4-314" value="" style="endArrow=none;html=1;rounded=0;startArrow=classic;startFill=1;endFill=0;exitX=0;exitY=0.5;exitDx=0;exitDy=0;" edge="1" source="eWaYEDoaf7_sY-xYZwq4-312" parent="1">
          <mxGeometry width="50" height="50" relative="1" as="geometry">
            <mxPoint x="17.439999999999998" y="800.5" as="sourcePoint" />
            <mxPoint x="110" y="800" as="targetPoint" />
            <Array as="points">
              <mxPoint x="488" y="740" />
              <mxPoint x="488" y="872" />
              <mxPoint x="18" y="872" />
              <mxPoint x="18" y="801" />
            </Array>
          </mxGeometry>
        </mxCell>
        <mxCell id="eWaYEDoaf7_sY-xYZwq4-315" value="" style="endArrow=classic;html=1;rounded=0;exitX=1;exitY=0.5;exitDx=0;exitDy=0;" edge="1" parent="1">
          <mxGeometry width="50" height="50" relative="1" as="geometry">
            <mxPoint x="542" y="739.5" as="sourcePoint" />
            <mxPoint x="670" y="682" as="targetPoint" />
            <Array as="points">
              <mxPoint x="568" y="740" />
              <mxPoint x="568" y="682" />
            </Array>
          </mxGeometry>
        </mxCell>
        <mxCell id="eWaYEDoaf7_sY-xYZwq4-318" style="edgeStyle=orthogonalEdgeStyle;rounded=0;orthogonalLoop=1;jettySize=auto;html=1;" edge="1" parent="1" source="eWaYEDoaf7_sY-xYZwq4-316" target="eWaYEDoaf7_sY-xYZwq4-123">
          <mxGeometry relative="1" as="geometry">
            <Array as="points">
              <mxPoint x="480" y="248" />
              <mxPoint x="480" y="330" />
              <mxPoint x="10" y="330" />
              <mxPoint x="10" y="396" />
            </Array>
          </mxGeometry>
        </mxCell>
        <mxCell id="eWaYEDoaf7_sY-xYZwq4-316" value="&lt;font style=&quot;font-size: 15px;&quot;&gt;&amp;amp;&lt;/font&gt;" style="rounded=0;whiteSpace=wrap;html=1;" vertex="1" parent="1">
          <mxGeometry x="490" y="231.5" width="34" height="34" as="geometry" />
        </mxCell>
        <mxCell id="eWaYEDoaf7_sY-xYZwq4-317" value="" style="endArrow=none;html=1;rounded=0;entryX=0.25;entryY=0;entryDx=0;entryDy=0;exitX=0.25;exitY=1;exitDx=0;exitDy=0;" edge="1" source="eWaYEDoaf7_sY-xYZwq4-316" target="eWaYEDoaf7_sY-xYZwq4-316" parent="1">
          <mxGeometry width="50" height="50" relative="1" as="geometry">
            <mxPoint x="419" y="273.5" as="sourcePoint" />
            <mxPoint x="469" y="223.5" as="targetPoint" />
          </mxGeometry>
        </mxCell>
        <mxCell id="eWaYEDoaf7_sY-xYZwq4-319" value="&lt;font style=&quot;font-size: 15px;&quot;&gt;&amp;amp;&lt;/font&gt;" style="rounded=0;whiteSpace=wrap;html=1;" vertex="1" parent="1">
          <mxGeometry x="501" y="500.5" width="34" height="34" as="geometry" />
        </mxCell>
        <mxCell id="eWaYEDoaf7_sY-xYZwq4-320" value="" style="endArrow=none;html=1;rounded=0;entryX=0.25;entryY=0;entryDx=0;entryDy=0;exitX=0.25;exitY=1;exitDx=0;exitDy=0;" edge="1" source="eWaYEDoaf7_sY-xYZwq4-319" target="eWaYEDoaf7_sY-xYZwq4-319" parent="1">
          <mxGeometry width="50" height="50" relative="1" as="geometry">
            <mxPoint x="430" y="542.5" as="sourcePoint" />
            <mxPoint x="480" y="492.5" as="targetPoint" />
          </mxGeometry>
        </mxCell>
        <mxCell id="eWaYEDoaf7_sY-xYZwq4-321" value="&lt;font style=&quot;font-size: 15px;&quot;&gt;&amp;amp;&lt;/font&gt;" style="rounded=0;whiteSpace=wrap;html=1;" vertex="1" parent="1">
          <mxGeometry x="508" y="789.5" width="34" height="34" as="geometry" />
        </mxCell>
        <mxCell id="eWaYEDoaf7_sY-xYZwq4-322" value="" style="endArrow=none;html=1;rounded=0;entryX=0.25;entryY=0;entryDx=0;entryDy=0;exitX=0.25;exitY=1;exitDx=0;exitDy=0;" edge="1" source="eWaYEDoaf7_sY-xYZwq4-321" target="eWaYEDoaf7_sY-xYZwq4-321" parent="1">
          <mxGeometry width="50" height="50" relative="1" as="geometry">
            <mxPoint x="437" y="831.5" as="sourcePoint" />
            <mxPoint x="487" y="781.5" as="targetPoint" />
          </mxGeometry>
        </mxCell>
        <mxCell id="eWaYEDoaf7_sY-xYZwq4-324" style="edgeStyle=orthogonalEdgeStyle;rounded=0;orthogonalLoop=1;jettySize=auto;html=1;" edge="1" parent="1">
          <mxGeometry relative="1" as="geometry">
            <mxPoint x="498" y="527" as="sourcePoint" />
            <mxPoint x="110" y="674" as="targetPoint" />
            <Array as="points">
              <mxPoint x="488" y="526" />
              <mxPoint x="488" y="608" />
              <mxPoint x="18" y="608" />
              <mxPoint x="18" y="674" />
            </Array>
          </mxGeometry>
        </mxCell>
      </root>
    </mxGraphModel>
  </diagram>
</mxfile>
